<svg width="250" height="40" viewBox="0 0 250 40" fill="none" xmlns="http://www.w3.org/2000/svg">
<path d="M34.4393 39.0602C35.0251 39.646 35.9748 39.646 36.5606 39.0602L46.1065 29.5143C46.6923 28.9285 46.6923 27.9788 46.1065 27.393C45.5207 26.8072 44.571 26.8072 43.9852 27.393L35.4999 35.8783L27.0146 27.393C26.4289 26.8072 25.4791 26.8072 24.8933 27.393C24.3075 27.9788 24.3075 28.9285 24.8933 29.5143L34.4393 39.0602ZM103.939 39.0602C104.525 39.646 105.475 39.646 106.061 39.0602L115.606 29.5143C116.192 28.9285 116.192 27.9787 115.606 27.393C115.021 26.8072 114.071 26.8072 113.485 27.393L105 35.8782L96.5146 27.393C95.9288 26.8072 94.9791 26.8072 94.3933 27.393C93.8075 27.9788 93.8075 28.9285 94.3933 29.5143L103.939 39.0602ZM57.4392 39.0603C58.025 39.646 58.9748 39.646 59.5606 39.0603L69.1065 29.5143C69.6923 28.9285 69.6923 27.9788 69.1065 27.393C68.5207 26.8072 67.571 26.8072 66.9852 27.393L58.4999 35.8783L50.0146 27.393C49.4288 26.8072 48.4791 26.8072 47.8933 27.393C47.3075 27.9788 47.3075 28.9285 47.8933 29.5143L57.4392 39.0603ZM80.4392 39.0603C81.025 39.6461 81.9747 39.6461 82.5605 39.0603L92.1065 29.5144C92.6922 28.9286 92.6922 27.9788 92.1065 27.393C91.5207 26.8073 90.5709 26.8073 89.9851 27.393L81.4999 35.8783L73.0146 27.393C72.4288 26.8073 71.479 26.8073 70.8933 27.393C70.3075 27.9788 70.3075 28.9286 70.8933 29.5144L80.4392 39.0603ZM125.439 39.0604C126.025 39.6462 126.975 39.6462 127.561 39.0604L137.106 29.5144C137.692 28.9286 137.692 27.9789 137.106 27.3931C136.521 26.8073 135.571 26.8073 134.985 27.3931L126.5 35.8784L118.015 27.3931C117.429 26.8073 116.479 26.8073 115.893 27.3931C115.307 27.9789 115.307 28.9286 115.893 29.5144L125.439 39.0604ZM146.439 39.0603C147.025 39.6461 147.975 39.6461 148.561 39.0603L158.106 29.5144C158.692 28.9286 158.692 27.9788 158.106 27.3931C157.521 26.8073 156.571 26.8073 155.985 27.3931L147.5 35.8783L139.015 27.3931C138.429 26.8073 137.479 26.8073 136.893 27.3931C136.307 27.9789 136.307 28.9286 136.893 29.5144L146.439 39.0603ZM214.439 39.0606C215.025 39.6464 215.975 39.6464 216.561 39.0606L226.107 29.5147C226.692 28.9289 226.692 27.9792 226.107 27.3934C225.521 26.8076 224.571 26.8076 223.985 27.3934L215.5 35.8787L207.015 27.3934C206.429 26.8076 205.479 26.8076 204.893 27.3934C204.308 27.9792 204.308 28.9289 204.893 29.5147L214.439 39.0606ZM169.439 39.0603C170.025 39.6461 170.975 39.6461 171.561 39.0603L181.106 29.5144C181.692 28.9286 181.692 27.9788 181.106 27.393C180.521 26.8072 179.571 26.8072 178.985 27.393L170.5 35.8783L162.015 27.393C161.429 26.8072 160.479 26.8072 159.893 27.393C159.307 27.9788 159.307 28.9286 159.893 29.5143L169.439 39.0603ZM192.439 39.0603C193.025 39.6461 193.975 39.6461 194.561 39.0603L204.106 29.5143C204.692 28.9285 204.692 27.9788 204.106 27.393C203.521 26.8072 202.571 26.8072 201.985 27.393L193.5 35.8783L185.015 27.393C184.429 26.8072 183.479 26.8072 182.893 27.393C182.307 27.9788 182.307 28.9285 182.893 29.5143L192.439 39.0603ZM237.439 39.0607C238.025 39.6465 238.975 39.6465 239.561 39.0607L249.107 29.5147C249.692 28.9289 249.692 27.9792 249.107 27.3934C248.521 26.8076 247.571 26.8076 246.985 27.3934L238.5 35.8787L230.015 27.3934C229.429 26.8076 228.479 26.8076 227.893 27.3934C227.308 27.9792 227.308 28.929 227.893 29.5147L237.439 39.0607ZM10.4393 39.0607C11.0251 39.6464 11.9749 39.6464 12.5606 39.0607L22.1066 29.5147C22.6924 28.9289 22.6924 27.9792 22.1066 27.3934C21.5208 26.8076 20.571 26.8076 19.9853 27.3934L11.5 35.8787L3.0147 27.3934C2.42891 26.8076 1.47916 26.8076 0.893374 27.3934C0.307587 27.9792 0.307591 28.9289 0.893367 29.5147L10.4393 39.0607ZM33.9999 -0.000418612L33.9999 37.9996L36.9999 37.9996L36.9999 -0.000421865L33.9999 -0.000418612ZM103.5 -0.000460189L103.5 37.9996L106.5 37.9996L106.5 -0.000458223L103.5 -0.000460189ZM56.9999 -0.000410481L56.9999 37.9996L59.9999 37.9996L59.9999 -0.000413734L56.9999 -0.000410481ZM79.9998 -0.000373673L79.9999 37.9996L82.9999 37.9996L82.9999 -0.000376926L79.9998 -0.000373673ZM125 -0.000299218L125 37.9997L128 37.9997L128 -0.000297252L125 -0.000299218ZM146 -0.00034347L146 37.9997L149 37.9997L149 -0.000341504L146 -0.00034347ZM214 -1.22583e-05L214 38L217 38L217 -1.02924e-05L214 -1.22583e-05ZM169 -0.000371528L169 37.9996L172 37.9996L172 -0.000369562L169 -0.000371528ZM192 -0.000393062L192 37.9996L195 37.9996L195 -0.000391096L192 -0.000393062ZM237 2.25488e-05L237 38L240 38L240 2.39439e-05L237 2.25488e-05ZM9.99996 1.72194e-06L9.99997 38L13 38L13 -1.53096e-06L9.99996 1.72194e-06Z" fill="#FFE710"/>
</svg>
