<svg width="205" height="258" viewBox="0 0 205 258" fill="none" xmlns="http://www.w3.org/2000/svg">
<rect width="205" height="258" fill="#ECFF0F"/>
<path d="M74.9492 97.4545V112H71.9663V97.4545H74.9492ZM63.1808 112L67.7404 104.33L63.3725 97.4545H67.158L70.4251 103.442H76.5685L79.7504 97.4545H83.5217L79.2603 104.308L83.7347 112H80.0629L76.9876 106.283H69.9776L66.8242 112H63.1808ZM84.6598 115.196V109.599H85.4979C85.7393 109.448 85.9335 109.206 86.0803 108.875C86.2318 108.544 86.3549 108.153 86.4496 107.703C86.549 107.253 86.6248 106.768 86.6768 106.247C86.7337 105.722 86.7834 105.191 86.826 104.656L87.1101 101.091H95.4766V109.599H97.1669V115.196H94.2834V112H87.6143V115.196H84.6598ZM88.5092 109.599H92.6214V103.42H89.6811L89.5675 104.656C89.487 105.821 89.371 106.811 89.2195 107.625C89.0679 108.435 88.8312 109.093 88.5092 109.599ZM103.902 112.213C102.779 112.213 101.814 111.986 101.004 111.531C100.199 111.072 99.5787 110.423 99.1431 109.585C98.7075 108.742 98.4897 107.746 98.4897 106.595C98.4897 105.473 98.7075 104.488 99.1431 103.641C99.5787 102.793 100.192 102.133 100.983 101.659C101.778 101.186 102.711 100.949 103.781 100.949C104.501 100.949 105.171 101.065 105.791 101.297C106.416 101.524 106.96 101.867 107.424 102.327C107.893 102.786 108.258 103.364 108.518 104.06C108.779 104.751 108.909 105.561 108.909 106.489V107.32H99.6971V105.445H106.061C106.061 105.009 105.966 104.623 105.777 104.287C105.587 103.951 105.324 103.688 104.988 103.499C104.657 103.304 104.271 103.207 103.831 103.207C103.371 103.207 102.964 103.314 102.609 103.527C102.259 103.735 101.984 104.017 101.785 104.372C101.586 104.723 101.484 105.113 101.48 105.544V107.327C101.48 107.866 101.579 108.333 101.778 108.726C101.982 109.119 102.268 109.422 102.637 109.635C103.007 109.848 103.445 109.955 103.951 109.955C104.288 109.955 104.595 109.907 104.875 109.812C105.154 109.718 105.393 109.576 105.592 109.386C105.791 109.197 105.942 108.965 106.047 108.69L108.845 108.875C108.703 109.547 108.412 110.134 107.971 110.636C107.536 111.134 106.972 111.522 106.281 111.801C105.594 112.076 104.801 112.213 103.902 112.213ZM117.332 108.655L120.287 101.091H122.588L118.333 112H116.324L112.169 101.091H114.463L117.332 108.655ZM113.774 101.091V112H110.883V101.091H113.774ZM121.039 112V101.091H123.895V112H121.039ZM131.164 112.213C130.046 112.213 129.085 111.976 128.28 111.503C127.48 111.025 126.864 110.362 126.434 109.514C126.007 108.667 125.794 107.691 125.794 106.588C125.794 105.471 126.01 104.491 126.441 103.648C126.876 102.8 127.494 102.14 128.294 101.666C129.095 101.188 130.046 100.949 131.15 100.949C132.101 100.949 132.935 101.122 133.65 101.467C134.364 101.813 134.93 102.298 135.347 102.923C135.764 103.548 135.993 104.282 136.036 105.125H133.181C133.1 104.58 132.887 104.143 132.542 103.811C132.201 103.475 131.753 103.307 131.199 103.307C130.73 103.307 130.321 103.435 129.971 103.69C129.625 103.941 129.355 104.308 129.161 104.791C128.967 105.274 128.87 105.859 128.87 106.545C128.87 107.241 128.964 107.833 129.154 108.321C129.348 108.809 129.62 109.18 129.971 109.436C130.321 109.692 130.73 109.82 131.199 109.82C131.545 109.82 131.855 109.749 132.13 109.607C132.409 109.464 132.639 109.259 132.819 108.989C133.003 108.714 133.124 108.385 133.181 108.001H136.036C135.989 108.835 135.761 109.569 135.354 110.203C134.952 110.833 134.395 111.325 133.685 111.68C132.975 112.036 132.134 112.213 131.164 112.213ZM95.1312 136V125.091H99.7832C101.128 125.091 102.191 125.347 102.972 125.858C103.753 126.369 104.144 127.096 104.144 128.038C104.144 128.63 103.924 129.123 103.483 129.516C103.043 129.909 102.432 130.174 101.651 130.311C102.305 130.358 102.861 130.508 103.32 130.759C103.784 131.005 104.137 131.324 104.378 131.717C104.625 132.11 104.748 132.546 104.748 133.024C104.748 133.644 104.582 134.177 104.251 134.622C103.924 135.067 103.443 135.408 102.809 135.645C102.179 135.882 101.41 136 100.501 136H95.1312ZM97.9508 133.734H100.501C100.922 133.734 101.251 133.635 101.488 133.436C101.729 133.232 101.85 132.955 101.85 132.605C101.85 132.217 101.729 131.911 101.488 131.689C101.251 131.466 100.922 131.355 100.501 131.355H97.9508V133.734ZM97.9508 129.58H99.8471C100.15 129.58 100.408 129.537 100.621 129.452C100.839 129.362 101.005 129.234 101.118 129.068C101.237 128.902 101.296 128.706 101.296 128.479C101.296 128.143 101.161 127.88 100.891 127.69C100.621 127.501 100.252 127.406 99.7832 127.406H97.9508V129.58ZM56.4203 160V149.091H65.9586V160H63.068V151.47H59.2754V160H56.4203ZM73.3024 160.213C72.1992 160.213 71.2451 159.979 70.4402 159.51C69.64 159.036 69.0221 158.378 68.5865 157.536C68.1509 156.688 67.9331 155.705 67.9331 154.588C67.9331 153.461 68.1509 152.476 68.5865 151.634C69.0221 150.786 69.64 150.128 70.4402 149.659C71.2451 149.186 72.1992 148.949 73.3024 148.949C74.4056 148.949 75.3573 149.186 76.1575 149.659C76.9624 150.128 77.5827 150.786 78.0183 151.634C78.4539 152.476 78.6717 153.461 78.6717 154.588C78.6717 155.705 78.4539 156.688 78.0183 157.536C77.5827 158.378 76.9624 159.036 76.1575 159.51C75.3573 159.979 74.4056 160.213 73.3024 160.213ZM73.3166 157.869C73.8185 157.869 74.2375 157.727 74.5737 157.443C74.9099 157.154 75.1632 156.761 75.3336 156.264C75.5088 155.767 75.5964 155.201 75.5964 154.567C75.5964 153.932 75.5088 153.366 75.3336 152.869C75.1632 152.372 74.9099 151.979 74.5737 151.69C74.2375 151.402 73.8185 151.257 73.3166 151.257C72.81 151.257 72.3838 151.402 72.0382 151.69C71.6973 151.979 71.4392 152.372 71.264 152.869C71.0936 153.366 71.0083 153.932 71.0083 154.567C71.0083 155.201 71.0936 155.767 71.264 156.264C71.4392 156.761 71.6973 157.154 72.0382 157.443C72.3838 157.727 72.81 157.869 73.3166 157.869ZM79.9998 160L79.9856 157.599H80.3478C80.6035 157.599 80.8237 157.538 81.0083 157.415C81.1977 157.287 81.354 157.081 81.4771 156.797C81.6002 156.513 81.6973 156.136 81.7683 155.668C81.8393 155.194 81.8867 154.612 81.9103 153.92L82.0879 149.091H90.3833V160H87.4998V151.47H84.8081L84.6376 154.801C84.595 155.715 84.4837 156.501 84.3038 157.159C84.1286 157.817 83.8848 158.357 83.5723 158.778C83.2598 159.195 82.8833 159.503 82.443 159.702C82.0027 159.901 81.4913 160 80.9089 160H79.9998ZM95.6195 156.009L99.5471 149.091H102.53V160H99.6465V153.061L95.7331 160H92.7289V149.091H95.6195V156.009ZM103.86 151.47V149.091H113.746V151.47H110.231V160H107.347V151.47H103.86ZM120.161 160.213C119.039 160.213 118.073 159.986 117.264 159.531C116.459 159.072 115.838 158.423 115.403 157.585C114.967 156.742 114.749 155.746 114.749 154.595C114.749 153.473 114.967 152.488 115.403 151.641C115.838 150.793 116.452 150.133 117.242 149.659C118.038 149.186 118.971 148.949 120.041 148.949C120.76 148.949 121.43 149.065 122.051 149.297C122.676 149.524 123.22 149.867 123.684 150.327C124.153 150.786 124.517 151.364 124.778 152.06C125.038 152.751 125.169 153.561 125.169 154.489V155.32H115.957V153.445H122.32C122.32 153.009 122.226 152.623 122.036 152.287C121.847 151.951 121.584 151.688 121.248 151.499C120.917 151.304 120.531 151.207 120.09 151.207C119.631 151.207 119.224 151.314 118.869 151.527C118.518 151.735 118.244 152.017 118.045 152.372C117.846 152.723 117.744 153.113 117.74 153.544V155.327C117.74 155.866 117.839 156.333 118.038 156.726C118.241 157.119 118.528 157.422 118.897 157.635C119.267 157.848 119.704 157.955 120.211 157.955C120.547 157.955 120.855 157.907 121.134 157.812C121.414 157.718 121.653 157.576 121.852 157.386C122.051 157.197 122.202 156.965 122.306 156.69L125.105 156.875C124.963 157.547 124.671 158.134 124.231 158.636C123.795 159.134 123.232 159.522 122.541 159.801C121.854 160.076 121.061 160.213 120.161 160.213ZM129.476 149.091L131.479 152.905L133.531 149.091H136.635L133.475 154.545L136.72 160H133.631L131.479 156.229L129.362 160H126.237L129.476 154.545L126.351 149.091H129.476ZM143.013 160.213C141.891 160.213 140.925 159.986 140.115 159.531C139.31 159.072 138.69 158.423 138.254 157.585C137.819 156.742 137.601 155.746 137.601 154.595C137.601 153.473 137.819 152.488 138.254 151.641C138.69 150.793 139.303 150.133 140.094 149.659C140.889 149.186 141.822 148.949 142.892 148.949C143.612 148.949 144.282 149.065 144.902 149.297C145.527 149.524 146.072 149.867 146.536 150.327C147.004 150.786 147.369 151.364 147.629 152.06C147.89 152.751 148.02 153.561 148.02 154.489V155.32H138.808V153.445H145.172C145.172 153.009 145.077 152.623 144.888 152.287C144.699 151.951 144.436 151.688 144.1 151.499C143.768 151.304 143.382 151.207 142.942 151.207C142.483 151.207 142.075 151.314 141.72 151.527C141.37 151.735 141.095 152.017 140.896 152.372C140.698 152.723 140.596 153.113 140.591 153.544V155.327C140.591 155.866 140.691 156.333 140.889 156.726C141.093 157.119 141.379 157.422 141.749 157.635C142.118 157.848 142.556 157.955 143.063 157.955C143.399 157.955 143.707 157.907 143.986 157.812C144.265 157.718 144.504 157.576 144.703 157.386C144.902 157.197 145.054 156.965 145.158 156.69L147.956 156.875C147.814 157.547 147.523 158.134 147.083 158.636C146.647 159.134 146.084 159.522 145.392 159.801C144.706 160.076 143.913 160.213 143.013 160.213Z" fill="#BD00FF"/>
</svg>
