<svg width="205" height="258" viewBox="0 0 205 258" fill="none" xmlns="http://www.w3.org/2000/svg">
<rect width="205" height="258" fill="#ECFF0F"/>
<path d="M41.0032 103.99V101.455H52.9492V103.99H48.4961V116H45.4563V103.99H41.0032ZM56.756 108.443H60.016C61.4601 108.443 62.587 108.789 63.3967 109.48C64.2063 110.167 64.6112 111.085 64.6112 112.236C64.6112 112.984 64.4289 113.642 64.0643 114.21C63.6997 114.774 63.1741 115.214 62.4876 115.531C61.801 115.844 60.9772 116 60.016 116H54.8597V105.091H57.7504V113.621H60.016C60.5226 113.621 60.9393 113.493 61.266 113.237C61.5927 112.982 61.7584 112.655 61.7631 112.257C61.7584 111.836 61.5927 111.492 61.266 111.227C60.9393 110.957 60.5226 110.822 60.016 110.822H56.756V108.443ZM65.783 116V105.091H68.8086V116H65.783ZM84.9254 101.085L85.8487 103.06C85.541 103.315 85.2 103.505 84.826 103.628C84.4519 103.746 84.0045 103.824 83.4837 103.862C82.9676 103.9 82.3378 103.926 81.5945 103.94C80.7517 103.95 80.0651 104.085 79.5348 104.345C79.0045 104.606 78.602 105.015 78.3274 105.574C78.0528 106.128 77.8729 106.852 77.7876 107.747H77.8942C78.2209 107.08 78.6802 106.563 79.272 106.199C79.8686 105.834 80.6049 105.652 81.4808 105.652C82.4089 105.652 83.2209 105.856 83.9169 106.263C84.6177 106.67 85.1622 107.255 85.5504 108.017C85.9387 108.779 86.1328 109.693 86.1328 110.759C86.1328 111.866 85.915 112.83 85.4794 113.649C85.0485 114.464 84.4354 115.096 83.6399 115.545C82.8445 115.991 81.8975 116.213 80.799 116.213C79.6958 116.213 78.7441 115.981 77.9439 115.517C77.1484 115.053 76.5329 114.369 76.0973 113.464C75.6664 112.56 75.451 111.447 75.451 110.126V109.232C75.451 106.604 75.9624 104.655 76.9851 103.386C78.0078 102.117 79.5111 101.473 81.495 101.455C82.0348 101.445 82.5225 101.443 82.9581 101.447C83.3937 101.452 83.7749 101.431 84.1016 101.384C84.433 101.336 84.7076 101.237 84.9254 101.085ZM80.8132 113.869C81.2772 113.869 81.675 113.749 82.0064 113.507C82.3426 113.266 82.6006 112.92 82.7805 112.47C82.9652 112.02 83.0575 111.483 83.0575 110.858C83.0575 110.238 82.9652 109.712 82.7805 109.281C82.6006 108.846 82.3426 108.514 82.0064 108.287C81.6702 108.06 81.2678 107.946 80.799 107.946C80.4486 107.946 80.1338 108.01 79.8544 108.138C79.575 108.266 79.3359 108.455 79.1371 108.706C78.9429 108.952 78.7914 109.258 78.6825 109.622C78.5784 109.982 78.5263 110.394 78.5263 110.858C78.5263 111.791 78.7275 112.527 79.13 113.067C79.5372 113.602 80.0982 113.869 80.8132 113.869ZM93.07 116.213C91.9667 116.213 91.0127 115.979 90.2077 115.51C89.4076 115.036 88.7897 114.378 88.354 113.536C87.9184 112.688 87.7006 111.705 87.7006 110.588C87.7006 109.461 87.9184 108.476 88.354 107.634C88.7897 106.786 89.4076 106.128 90.2077 105.659C91.0127 105.186 91.9667 104.949 93.07 104.949C94.1732 104.949 95.1249 105.186 95.9251 105.659C96.73 106.128 97.3503 106.786 97.7859 107.634C98.2215 108.476 98.4393 109.461 98.4393 110.588C98.4393 111.705 98.2215 112.688 97.7859 113.536C97.3503 114.378 96.73 115.036 95.9251 115.51C95.1249 115.979 94.1732 116.213 93.07 116.213ZM93.0842 113.869C93.5861 113.869 94.0051 113.727 94.3413 113.443C94.6774 113.154 94.9308 112.761 95.1012 112.264C95.2764 111.767 95.364 111.201 95.364 110.567C95.364 109.932 95.2764 109.366 95.1012 108.869C94.9308 108.372 94.6774 107.979 94.3413 107.69C94.0051 107.402 93.5861 107.257 93.0842 107.257C92.5775 107.257 92.1514 107.402 91.8058 107.69C91.4648 107.979 91.2068 108.372 91.0316 108.869C90.8612 109.366 90.7759 109.932 90.7759 110.567C90.7759 111.201 90.8612 111.767 91.0316 112.264C91.2068 112.761 91.4648 113.154 91.8058 113.443C92.1514 113.727 92.5775 113.869 93.0842 113.869ZM99.7674 116L99.7532 113.599H100.115C100.371 113.599 100.591 113.538 100.776 113.415C100.965 113.287 101.122 113.081 101.245 112.797C101.368 112.513 101.465 112.136 101.536 111.668C101.607 111.194 101.654 110.612 101.678 109.92L101.855 105.091H110.151V116H107.267V107.47H104.576L104.405 110.801C104.363 111.715 104.251 112.501 104.071 113.159C103.896 113.817 103.652 114.357 103.34 114.778C103.027 115.195 102.651 115.503 102.211 115.702C101.77 115.901 101.259 116 100.676 116H99.7674ZM114.393 108.443H117.653C119.097 108.443 120.224 108.789 121.033 109.48C121.843 110.167 122.248 111.085 122.248 112.236C122.248 112.984 122.066 113.642 121.701 114.21C121.336 114.774 120.811 115.214 120.124 115.531C119.438 115.844 118.614 116 117.653 116H112.496V105.091H115.387V113.621H117.653C118.159 113.621 118.576 113.493 118.903 113.237C119.229 112.982 119.395 112.655 119.4 112.257C119.395 111.836 119.229 111.492 118.903 111.227C118.576 110.957 118.159 110.822 117.653 110.822H114.393V108.443ZM124.254 105.091H127.145V113.599H130.22V105.091H133.111V113.599H136.186V105.091H139.077V116H124.254V105.091ZM146.351 116.213C145.248 116.213 144.294 115.979 143.489 115.51C142.689 115.036 142.071 114.378 141.635 113.536C141.2 112.688 140.982 111.705 140.982 110.588C140.982 109.461 141.2 108.476 141.635 107.634C142.071 106.786 142.689 106.128 143.489 105.659C144.294 105.186 145.248 104.949 146.351 104.949C147.454 104.949 148.406 105.186 149.206 105.659C150.011 106.128 150.632 106.786 151.067 107.634C151.503 108.476 151.721 109.461 151.721 110.588C151.721 111.705 151.503 112.688 151.067 113.536C150.632 114.378 150.011 115.036 149.206 115.51C148.406 115.979 147.454 116.213 146.351 116.213ZM146.365 113.869C146.867 113.869 147.286 113.727 147.623 113.443C147.959 113.154 148.212 112.761 148.382 112.264C148.558 111.767 148.645 111.201 148.645 110.567C148.645 109.932 148.558 109.366 148.382 108.869C148.212 108.372 147.959 107.979 147.623 107.69C147.286 107.402 146.867 107.257 146.365 107.257C145.859 107.257 145.433 107.402 145.087 107.69C144.746 107.979 144.488 108.372 144.313 108.869C144.142 109.366 144.057 109.932 144.057 110.567C144.057 111.201 144.142 111.767 144.313 112.264C144.488 112.761 144.746 113.154 145.087 113.443C145.433 113.727 145.859 113.869 146.365 113.869ZM156.578 112.009L160.506 105.091H163.489V116H160.605V109.061L156.692 116H153.688V105.091H156.578V112.009ZM159.988 101.284H162.097C162.092 102.146 161.773 102.839 161.138 103.365C160.508 103.891 159.656 104.153 158.581 104.153C157.502 104.153 156.647 103.891 156.017 103.365C155.388 102.839 155.073 102.146 155.073 101.284H157.168C157.163 101.611 157.267 101.904 157.48 102.165C157.698 102.425 158.065 102.555 158.581 102.555C159.083 102.555 159.443 102.428 159.661 102.172C159.879 101.916 159.988 101.62 159.988 101.284ZM67.2266 136.655L70.1811 129.091H72.4822L68.228 140H66.218L62.0632 129.091H64.3572L67.2266 136.655ZM63.6683 129.091V140H60.7777V129.091H63.6683ZM70.9339 140V129.091H73.7891V140H70.9339ZM81.0582 140.213C79.955 140.213 79.0009 139.979 78.196 139.51C77.3958 139.036 76.7779 138.378 76.3423 137.536C75.9067 136.688 75.6889 135.705 75.6889 134.588C75.6889 133.461 75.9067 132.476 76.3423 131.634C76.7779 130.786 77.3958 130.128 78.196 129.659C79.0009 129.186 79.955 128.949 81.0582 128.949C82.1615 128.949 83.1132 129.186 83.9134 129.659C84.7183 130.128 85.3385 130.786 85.7741 131.634C86.2098 132.476 86.4276 133.461 86.4276 134.588C86.4276 135.705 86.2098 136.688 85.7741 137.536C85.3385 138.378 84.7183 139.036 83.9134 139.51C83.1132 139.979 82.1615 140.213 81.0582 140.213ZM81.0724 137.869C81.5743 137.869 81.9934 137.727 82.3295 137.443C82.6657 137.154 82.919 136.761 83.0895 136.264C83.2647 135.767 83.3523 135.201 83.3523 134.567C83.3523 133.932 83.2647 133.366 83.0895 132.869C82.919 132.372 82.6657 131.979 82.3295 131.69C81.9934 131.402 81.5743 131.257 81.0724 131.257C80.5658 131.257 80.1397 131.402 79.794 131.69C79.4531 131.979 79.1951 132.372 79.0199 132.869C78.8494 133.366 78.7642 133.932 78.7642 134.567C78.7642 135.201 78.8494 135.767 79.0199 136.264C79.1951 136.761 79.4531 137.154 79.794 137.443C80.1397 137.727 80.5658 137.869 81.0724 137.869ZM87.7557 140L87.7415 137.599H88.1037C88.3594 137.599 88.5795 137.538 88.7642 137.415C88.9536 137.287 89.1098 137.081 89.233 136.797C89.3561 136.513 89.4531 136.136 89.5241 135.668C89.5952 135.194 89.6425 134.612 89.6662 133.92L89.8438 129.091H98.1392V140H95.2557V131.47H92.5639L92.3935 134.801C92.3509 135.715 92.2396 136.501 92.0597 137.159C91.8845 137.817 91.6406 138.357 91.3281 138.778C91.0156 139.195 90.6392 139.503 90.1989 139.702C89.7585 139.901 89.2472 140 88.6648 140H87.7557ZM105.414 140.213C104.31 140.213 103.356 139.979 102.551 139.51C101.751 139.036 101.133 138.378 100.698 137.536C100.262 136.688 100.044 135.705 100.044 134.588C100.044 133.461 100.262 132.476 100.698 131.634C101.133 130.786 101.751 130.128 102.551 129.659C103.356 129.186 104.31 128.949 105.414 128.949C106.517 128.949 107.469 129.186 108.269 129.659C109.074 130.128 109.694 130.786 110.13 131.634C110.565 132.476 110.783 133.461 110.783 134.588C110.783 135.705 110.565 136.688 110.13 137.536C109.694 138.378 109.074 139.036 108.269 139.51C107.469 139.979 106.517 140.213 105.414 140.213ZM105.428 137.869C105.93 137.869 106.349 137.727 106.685 137.443C107.021 137.154 107.275 136.761 107.445 136.264C107.62 135.767 107.708 135.201 107.708 134.567C107.708 133.932 107.62 133.366 107.445 132.869C107.275 132.372 107.021 131.979 106.685 131.69C106.349 131.402 105.93 131.257 105.428 131.257C104.921 131.257 104.495 131.402 104.15 131.69C103.809 131.979 103.551 132.372 103.375 132.869C103.205 133.366 103.12 133.932 103.12 134.567C103.12 135.201 103.205 135.767 103.375 136.264C103.551 136.761 103.809 137.154 104.15 137.443C104.495 137.727 104.921 137.869 105.428 137.869ZM111.898 143.196V137.599H112.736C112.978 137.448 113.172 137.206 113.319 136.875C113.47 136.544 113.593 136.153 113.688 135.703C113.787 135.253 113.863 134.768 113.915 134.247C113.972 133.722 114.022 133.191 114.064 132.656L114.348 129.091H122.715V137.599H124.405V143.196H121.522V140H114.853V143.196H111.898ZM115.748 137.599H119.86V131.42H116.919L116.806 132.656C116.725 133.821 116.609 134.811 116.458 135.625C116.306 136.435 116.069 137.093 115.748 137.599ZM131.14 140.213C130.018 140.213 129.052 139.986 128.242 139.531C127.437 139.072 126.817 138.423 126.381 137.585C125.946 136.742 125.728 135.746 125.728 134.595C125.728 133.473 125.946 132.488 126.381 131.641C126.817 130.793 127.43 130.133 128.221 129.659C129.016 129.186 129.949 128.949 131.019 128.949C131.739 128.949 132.409 129.065 133.029 129.297C133.654 129.524 134.199 129.867 134.663 130.327C135.131 130.786 135.496 131.364 135.756 132.06C136.017 132.751 136.147 133.561 136.147 134.489V135.32H126.935V133.445H133.299C133.299 133.009 133.204 132.623 133.015 132.287C132.826 131.951 132.563 131.688 132.227 131.499C131.895 131.304 131.509 131.207 131.069 131.207C130.61 131.207 130.202 131.314 129.847 131.527C129.497 131.735 129.222 132.017 129.023 132.372C128.825 132.723 128.723 133.113 128.718 133.544V135.327C128.718 135.866 128.817 136.333 129.016 136.726C129.22 137.119 129.506 137.422 129.876 137.635C130.245 137.848 130.683 137.955 131.19 137.955C131.526 137.955 131.834 137.907 132.113 137.812C132.392 137.718 132.631 137.576 132.83 137.386C133.029 137.197 133.181 136.965 133.285 136.69L136.083 136.875C135.941 137.547 135.65 138.134 135.21 138.636C134.774 139.134 134.21 139.522 133.519 139.801C132.833 140.076 132.04 140.213 131.14 140.213ZM147.66 129.091V137.912H149.4V143.509H146.46V140H138.121V129.091H141.012V137.621H144.805V129.091H147.66Z" fill="#BD00FF"/>
</svg>
