<svg width="205" height="258" viewBox="0 0 205 258" fill="none" xmlns="http://www.w3.org/2000/svg">
<rect width="205" height="258" fill="#ECFF0F"/>
<path d="M36.7454 90.4545V105H33.6701V93.3736H33.5849L30.2539 95.4616V92.7344L33.8548 90.4545H36.7454ZM45.5149 105.199C44.5111 105.199 43.6162 105.014 42.8303 104.645C42.049 104.276 41.4287 103.767 40.9695 103.118C40.5102 102.469 40.2711 101.726 40.2521 100.888H43.2351C43.2682 101.451 43.505 101.908 43.9453 102.259C44.3857 102.609 44.9089 102.784 45.5149 102.784C45.9979 102.784 46.424 102.678 46.7933 102.464C47.1674 102.247 47.4586 101.946 47.6669 101.562C47.88 101.174 47.9865 100.729 47.9865 100.227C47.9865 99.7159 47.8776 99.2661 47.6598 98.8778C47.4467 98.4896 47.1508 98.1866 46.772 97.9688C46.3932 97.7509 45.96 97.6397 45.4723 97.6349C45.0462 97.6349 44.6319 97.7225 44.2294 97.8977C43.8317 98.0729 43.5215 98.312 43.299 98.6151L40.5646 98.125L41.2536 90.4545H50.1456V92.9688H43.7891L43.4126 96.6122H43.4979C43.7536 96.2524 44.1394 95.9541 44.6555 95.7173C45.1716 95.4806 45.7493 95.3622 46.3885 95.3622C47.2644 95.3622 48.0457 95.5682 48.7322 95.9801C49.4188 96.392 49.9609 96.9579 50.3587 97.6776C50.7564 98.3925 50.9529 99.2164 50.9482 100.149C50.9529 101.129 50.7256 102 50.2663 102.763C49.8118 103.52 49.175 104.117 48.3558 104.553C47.5414 104.983 46.5945 105.199 45.5149 105.199ZM64.1992 101.655L67.1538 94.0909H69.4549L65.2006 105H63.1907L59.0359 94.0909H61.3299L64.1992 101.655ZM60.641 94.0909V105H57.7504V94.0909H60.641ZM67.9066 105V94.0909H70.7617V105H67.9066ZM75.9925 101.009L79.9201 94.0909H82.9031V105H80.0195V98.0611L76.1062 105H73.1019V94.0909H75.9925V101.009ZM92.9208 98.3381V100.717H87.2248V98.3381H92.9208ZM88.2191 94.0909V105H85.3285V94.0909H88.2191ZM94.8171 94.0909V105H91.9478V94.0909H94.8171ZM109.386 98.3381V100.717H103.69V98.3381H109.386ZM104.684 94.0909V105H101.793V94.0909H104.684ZM111.282 94.0909V105H108.413V94.0909H111.282ZM116.74 105.206C116.044 105.206 115.424 105.085 114.879 104.844C114.335 104.598 113.904 104.235 113.587 103.757C113.274 103.274 113.118 102.673 113.118 101.953C113.118 101.347 113.229 100.838 113.452 100.426C113.674 100.014 113.977 99.6828 114.361 99.4318C114.744 99.1809 115.18 98.9915 115.668 98.8636C116.16 98.7358 116.676 98.6458 117.216 98.5938C117.85 98.5275 118.362 98.4659 118.75 98.4091C119.138 98.3475 119.42 98.2576 119.595 98.1392C119.77 98.0208 119.858 97.8456 119.858 97.6136V97.571C119.858 97.1212 119.716 96.7732 119.432 96.527C119.152 96.2808 118.755 96.1577 118.239 96.1577C117.694 96.1577 117.261 96.2784 116.939 96.5199C116.617 96.7566 116.404 97.0549 116.3 97.4148L113.501 97.1875C113.643 96.5246 113.923 95.9517 114.339 95.4688C114.756 94.9811 115.294 94.607 115.952 94.3466C116.615 94.0814 117.382 93.9489 118.253 93.9489C118.859 93.9489 119.439 94.0199 119.993 94.1619C120.552 94.304 121.046 94.5241 121.477 94.8224C121.913 95.1207 122.256 95.5043 122.507 95.973C122.758 96.437 122.884 96.9934 122.884 97.642V105H120.014V103.487H119.929C119.754 103.828 119.519 104.129 119.226 104.389C118.932 104.645 118.58 104.846 118.168 104.993C117.756 105.135 117.28 105.206 116.74 105.206ZM117.607 103.118C118.052 103.118 118.445 103.03 118.786 102.855C119.126 102.675 119.394 102.434 119.588 102.131C119.782 101.828 119.879 101.484 119.879 101.101V99.9432C119.785 100.005 119.654 100.062 119.489 100.114C119.328 100.161 119.145 100.206 118.942 100.249C118.738 100.286 118.535 100.322 118.331 100.355C118.127 100.384 117.943 100.41 117.777 100.433C117.422 100.485 117.112 100.568 116.847 100.682C116.581 100.795 116.375 100.949 116.229 101.143C116.082 101.333 116.009 101.57 116.009 101.854C116.009 102.266 116.158 102.58 116.456 102.798C116.759 103.011 117.143 103.118 117.607 103.118ZM124.67 101.911H127.603C127.617 102.27 127.778 102.554 128.086 102.763C128.394 102.971 128.791 103.075 129.279 103.075C129.772 103.075 130.186 102.962 130.522 102.734C130.858 102.502 131.026 102.171 131.026 101.74C131.026 101.475 130.96 101.245 130.827 101.051C130.695 100.852 130.51 100.696 130.273 100.582C130.037 100.469 129.762 100.412 129.45 100.412H127.88V98.4304H129.45C129.918 98.4304 130.278 98.3215 130.529 98.1037C130.785 97.8859 130.913 97.6136 130.913 97.2869C130.913 96.9176 130.78 96.6217 130.515 96.3991C130.254 96.1719 129.902 96.0582 129.457 96.0582C129.007 96.0582 128.633 96.16 128.335 96.3636C128.041 96.5625 127.889 96.8229 127.88 97.1449H124.961C124.97 96.4915 125.167 95.9257 125.55 95.4474C125.939 94.9692 126.46 94.5999 127.113 94.3395C127.771 94.0791 128.507 93.9489 129.322 93.9489C130.212 93.9489 130.979 94.0743 131.623 94.3253C132.272 94.5715 132.769 94.9242 133.114 95.3835C133.465 95.8428 133.64 96.3897 133.64 97.0241C133.64 97.6018 133.451 98.0848 133.072 98.473C132.693 98.8613 132.163 99.1383 131.481 99.304V99.4176C131.931 99.446 132.338 99.5668 132.702 99.7798C133.067 99.9929 133.358 100.286 133.576 100.661C133.794 101.03 133.903 101.468 133.903 101.974C133.903 102.652 133.704 103.232 133.306 103.714C132.913 104.197 132.369 104.569 131.673 104.83C130.981 105.085 130.188 105.213 129.293 105.213C128.422 105.213 127.641 105.088 126.95 104.837C126.263 104.581 125.716 104.207 125.309 103.714C124.906 103.222 124.693 102.621 124.67 101.911ZM138.869 105.206C138.173 105.206 137.553 105.085 137.008 104.844C136.464 104.598 136.033 104.235 135.716 103.757C135.403 103.274 135.247 102.673 135.247 101.953C135.247 101.347 135.358 100.838 135.581 100.426C135.803 100.014 136.106 99.6828 136.49 99.4318C136.873 99.1809 137.309 98.9915 137.797 98.8636C138.289 98.7358 138.805 98.6458 139.345 98.5938C139.979 98.5275 140.491 98.4659 140.879 98.4091C141.267 98.3475 141.549 98.2576 141.724 98.1392C141.899 98.0208 141.987 97.8456 141.987 97.6136V97.571C141.987 97.1212 141.845 96.7732 141.561 96.527C141.281 96.2808 140.884 96.1577 140.368 96.1577C139.823 96.1577 139.39 96.2784 139.068 96.5199C138.746 96.7566 138.533 97.0549 138.429 97.4148L135.63 97.1875C135.772 96.5246 136.052 95.9517 136.468 95.4688C136.885 94.9811 137.422 94.607 138.081 94.3466C138.743 94.0814 139.511 93.9489 140.382 93.9489C140.988 93.9489 141.568 94.0199 142.122 94.1619C142.681 94.304 143.175 94.5241 143.606 94.8224C144.042 95.1207 144.385 95.5043 144.636 95.973C144.887 96.437 145.012 96.9934 145.012 97.642V105H142.143V103.487H142.058C141.883 103.828 141.648 104.129 141.355 104.389C141.061 104.645 140.708 104.846 140.297 104.993C139.885 105.135 139.409 105.206 138.869 105.206ZM139.735 103.118C140.181 103.118 140.574 103.03 140.914 102.855C141.255 102.675 141.523 102.434 141.717 102.131C141.911 101.828 142.008 101.484 142.008 101.101V99.9432C141.913 100.005 141.783 100.062 141.618 100.114C141.457 100.161 141.274 100.206 141.071 100.249C140.867 100.286 140.663 100.322 140.46 100.355C140.256 100.384 140.072 100.41 139.906 100.433C139.551 100.485 139.241 100.568 138.975 100.682C138.71 100.795 138.504 100.949 138.358 101.143C138.211 101.333 138.137 101.57 138.137 101.854C138.137 102.266 138.287 102.58 138.585 102.798C138.888 103.011 139.271 103.118 139.735 103.118ZM146.507 108.196V102.599H147.346C147.587 102.448 147.781 102.206 147.928 101.875C148.079 101.544 148.203 101.153 148.297 100.703C148.397 100.253 148.472 99.768 148.525 99.2472C148.581 98.7216 148.631 98.1913 148.674 97.6562L148.958 94.0909H157.324V102.599H159.015V108.196H156.131V105H149.462V108.196H146.507ZM150.357 102.599H154.469V96.4205H151.529L151.415 97.6562C151.335 98.821 151.219 99.8106 151.067 100.625C150.916 101.435 150.679 102.093 150.357 102.599ZM171.799 105V96.4631H169.753C169.199 96.4631 168.778 96.5909 168.489 96.8466C168.2 97.1023 168.058 97.4053 168.063 97.7557C168.058 98.1108 168.195 98.4115 168.475 98.6577C168.759 98.8991 169.176 99.0199 169.725 99.0199H172.807V101.065H169.725C168.792 101.065 167.985 100.923 167.303 100.639C166.621 100.355 166.096 99.9598 165.726 99.4531C165.357 98.9418 165.175 98.3475 165.179 97.6705C165.175 96.9602 165.357 96.3376 165.726 95.8026C166.096 95.2628 166.623 94.8437 167.31 94.5455C168.001 94.2424 168.816 94.0909 169.753 94.0909H174.618V105H171.799ZM164.867 105L167.9 99.3182H170.79L167.765 105H164.867ZM33.5414 129V118.091H43.0797V129H40.1891V120.47H36.3965V129H33.5414ZM50.4235 129.213C49.3203 129.213 48.3662 128.979 47.5613 128.51C46.7611 128.036 46.1432 127.378 45.7076 126.536C45.272 125.688 45.0542 124.705 45.0542 123.588C45.0542 122.461 45.272 121.476 45.7076 120.634C46.1432 119.786 46.7611 119.128 47.5613 118.659C48.3662 118.186 49.3203 117.949 50.4235 117.949C51.5267 117.949 52.4784 118.186 53.2786 118.659C54.0835 119.128 54.7038 119.786 55.1394 120.634C55.575 121.476 55.7928 122.461 55.7928 123.588C55.7928 124.705 55.575 125.688 55.1394 126.536C54.7038 127.378 54.0835 128.036 53.2786 128.51C52.4784 128.979 51.5267 129.213 50.4235 129.213ZM50.4377 126.869C50.9396 126.869 51.3586 126.727 51.6948 126.443C52.031 126.154 52.2843 125.761 52.4547 125.264C52.6299 124.767 52.7175 124.201 52.7175 123.567C52.7175 122.932 52.6299 122.366 52.4547 121.869C52.2843 121.372 52.031 120.979 51.6948 120.69C51.3586 120.402 50.9396 120.257 50.4377 120.257C49.931 120.257 49.5049 120.402 49.1593 120.69C48.8184 120.979 48.5603 121.372 48.3851 121.869C48.2147 122.366 48.1294 122.932 48.1294 123.567C48.1294 124.201 48.2147 124.767 48.3851 125.264C48.5603 125.761 48.8184 126.154 49.1593 126.443C49.5049 126.727 49.931 126.869 50.4377 126.869ZM57.7601 129V118.091H60.7857V122.324H61.638L64.6067 118.091H68.1578L64.3013 123.503L68.2005 129H64.6067L61.915 125.129H60.7857V129H57.7601ZM71.5225 133.091C71.139 133.091 70.7792 133.06 70.443 132.999C70.1116 132.942 69.8369 132.868 69.6191 132.778L70.301 130.52C70.6561 130.629 70.9757 130.688 71.2598 130.697C71.5486 130.707 71.7972 130.641 72.0055 130.499C72.2186 130.357 72.3914 130.115 72.524 129.774L72.7015 129.312L68.7882 118.091H71.97L74.2285 126.102H74.3422L76.622 118.091H79.8251L75.585 130.179C75.3815 130.766 75.1045 131.277 74.7541 131.713C74.4084 132.153 73.9705 132.492 73.4402 132.729C72.9099 132.97 72.2707 133.091 71.5225 133.091ZM81.3734 118.091H84.264V126.599H87.3393V118.091H90.2299V126.599H93.3052V118.091H96.1958V129H81.3734V118.091ZM101.652 129.206C100.956 129.206 100.336 129.085 99.7914 128.844C99.2469 128.598 98.816 128.235 98.4988 127.757C98.1863 127.274 98.03 126.673 98.03 125.953C98.03 125.347 98.1413 124.838 98.3638 124.426C98.5864 124.014 98.8894 123.683 99.2729 123.432C99.6564 123.181 100.092 122.991 100.58 122.864C101.072 122.736 101.588 122.646 102.128 122.594C102.762 122.527 103.274 122.466 103.662 122.409C104.05 122.348 104.332 122.258 104.507 122.139C104.682 122.021 104.77 121.846 104.77 121.614V121.571C104.77 121.121 104.628 120.773 104.344 120.527C104.065 120.281 103.667 120.158 103.151 120.158C102.606 120.158 102.173 120.278 101.851 120.52C101.529 120.757 101.316 121.055 101.212 121.415L98.4135 121.188C98.5556 120.525 98.8349 119.952 99.2516 119.469C99.6683 118.981 100.206 118.607 100.864 118.347C101.527 118.081 102.294 117.949 103.165 117.949C103.771 117.949 104.351 118.02 104.905 118.162C105.464 118.304 105.959 118.524 106.389 118.822C106.825 119.121 107.168 119.504 107.419 119.973C107.67 120.437 107.796 120.993 107.796 121.642V129H104.926V127.487H104.841C104.666 127.828 104.432 128.129 104.138 128.389C103.844 128.645 103.492 128.846 103.08 128.993C102.668 129.135 102.192 129.206 101.652 129.206ZM102.519 127.118C102.964 127.118 103.357 127.03 103.698 126.855C104.039 126.675 104.306 126.434 104.5 126.131C104.694 125.828 104.791 125.484 104.791 125.101V123.943C104.697 124.005 104.566 124.062 104.401 124.114C104.24 124.161 104.057 124.206 103.854 124.249C103.65 124.286 103.447 124.322 103.243 124.355C103.039 124.384 102.855 124.41 102.689 124.433C102.334 124.485 102.024 124.568 101.759 124.682C101.494 124.795 101.288 124.949 101.141 125.143C100.994 125.333 100.921 125.57 100.921 125.854C100.921 126.266 101.07 126.58 101.368 126.798C101.671 127.011 102.055 127.118 102.519 127.118ZM109.504 129L109.49 126.599H109.852C110.107 126.599 110.328 126.538 110.512 126.415C110.702 126.287 110.858 126.081 110.981 125.797C111.104 125.513 111.201 125.136 111.272 124.668C111.343 124.194 111.391 123.612 111.414 122.92L111.592 118.091H119.887V129H117.004V120.47H114.312L114.142 123.801C114.099 124.715 113.988 125.501 113.808 126.159C113.633 126.817 113.389 127.357 113.076 127.778C112.764 128.195 112.387 128.503 111.947 128.702C111.507 128.901 110.995 129 110.413 129H109.504ZM131.791 129.213C130.673 129.213 129.712 128.976 128.907 128.503C128.107 128.025 127.491 127.362 127.061 126.514C126.634 125.667 126.421 124.691 126.421 123.588C126.421 122.471 126.637 121.491 127.068 120.648C127.503 119.8 128.121 119.14 128.921 118.666C129.722 118.188 130.673 117.949 131.776 117.949C132.728 117.949 133.561 118.122 134.276 118.467C134.991 118.813 135.557 119.298 135.974 119.923C136.391 120.548 136.62 121.282 136.663 122.125H133.808C133.727 121.58 133.514 121.143 133.169 120.811C132.828 120.475 132.38 120.307 131.826 120.307C131.357 120.307 130.948 120.435 130.597 120.69C130.252 120.941 129.982 121.308 129.788 121.791C129.594 122.274 129.497 122.859 129.497 123.545C129.497 124.241 129.591 124.833 129.781 125.321C129.975 125.809 130.247 126.18 130.597 126.436C130.948 126.692 131.357 126.82 131.826 126.82C132.172 126.82 132.482 126.749 132.757 126.607C133.036 126.464 133.266 126.259 133.445 125.989C133.63 125.714 133.751 125.385 133.808 125.001H136.663C136.615 125.835 136.388 126.569 135.981 127.203C135.579 127.833 135.022 128.325 134.312 128.68C133.602 129.036 132.761 129.213 131.791 129.213ZM140.468 133.091C140.084 133.091 139.724 133.06 139.388 132.999C139.057 132.942 138.782 132.868 138.564 132.778L139.246 130.52C139.601 130.629 139.921 130.688 140.205 130.697C140.494 130.707 140.742 130.641 140.951 130.499C141.164 130.357 141.337 130.115 141.469 129.774L141.647 129.312L137.733 118.091H140.915L143.174 126.102H143.287L145.567 118.091H148.77L144.53 130.179C144.327 130.766 144.05 131.277 143.699 131.713C143.354 132.153 142.916 132.492 142.385 132.729C141.855 132.97 141.216 133.091 140.468 133.091ZM150.319 129V118.091H159.857V129H156.966V120.47H153.174V129H150.319ZM165.383 129.206C164.687 129.206 164.066 129.085 163.522 128.844C162.977 128.598 162.546 128.235 162.229 127.757C161.917 127.274 161.76 126.673 161.76 125.953C161.76 125.347 161.872 124.838 162.094 124.426C162.317 124.014 162.62 123.683 163.003 123.432C163.387 123.181 163.823 122.991 164.31 122.864C164.803 122.736 165.319 122.646 165.858 122.594C166.493 122.527 167.004 122.466 167.393 122.409C167.781 122.348 168.063 122.258 168.238 122.139C168.413 122.021 168.501 121.846 168.501 121.614V121.571C168.501 121.121 168.358 120.773 168.074 120.527C167.795 120.281 167.397 120.158 166.881 120.158C166.337 120.158 165.903 120.278 165.581 120.52C165.26 120.757 165.046 121.055 164.942 121.415L162.144 121.188C162.286 120.525 162.565 119.952 162.982 119.469C163.399 118.981 163.936 118.607 164.594 118.347C165.257 118.081 166.024 117.949 166.895 117.949C167.501 117.949 168.081 118.02 168.635 118.162C169.194 118.304 169.689 118.524 170.12 118.822C170.555 119.121 170.899 119.504 171.15 119.973C171.401 120.437 171.526 120.993 171.526 121.642V129H168.657V127.487H168.572C168.396 127.828 168.162 128.129 167.868 128.389C167.575 128.645 167.222 128.846 166.81 128.993C166.398 129.135 165.922 129.206 165.383 129.206ZM166.249 127.118C166.694 127.118 167.087 127.03 167.428 126.855C167.769 126.675 168.037 126.434 168.231 126.131C168.425 125.828 168.522 125.484 168.522 125.101V123.943C168.427 124.005 168.297 124.062 168.131 124.114C167.97 124.161 167.788 124.206 167.584 124.249C167.381 124.286 167.177 124.322 166.974 124.355C166.77 124.384 166.585 124.41 166.42 124.433C166.064 124.485 165.754 124.568 165.489 124.682C165.224 124.795 165.018 124.949 164.871 125.143C164.724 125.333 164.651 125.57 164.651 125.854C164.651 126.266 164.8 126.58 165.099 126.798C165.402 127.011 165.785 127.118 166.249 127.118ZM50.5779 153.206C49.8819 153.206 49.2617 153.085 48.7172 152.844C48.1726 152.598 47.7418 152.235 47.4245 151.757C47.112 151.274 46.9558 150.673 46.9558 149.953C46.9558 149.347 47.0671 148.838 47.2896 148.426C47.5121 148.014 47.8152 147.683 48.1987 147.432C48.5822 147.181 49.0178 146.991 49.5055 146.864C49.9979 146.736 50.514 146.646 51.0538 146.594C51.6883 146.527 52.1996 146.466 52.5879 146.409C52.9761 146.348 53.2579 146.258 53.4331 146.139C53.6083 146.021 53.6958 145.846 53.6958 145.614V145.571C53.6958 145.121 53.5538 144.773 53.2697 144.527C52.9904 144.281 52.5926 144.158 52.0765 144.158C51.532 144.158 51.0988 144.278 50.7768 144.52C50.4548 144.757 50.2418 145.055 50.1376 145.415L47.3393 145.188C47.4814 144.525 47.7607 143.952 48.1774 143.469C48.594 142.981 49.1315 142.607 49.7896 142.347C50.4525 142.081 51.2195 141.949 52.0907 141.949C52.6968 141.949 53.2768 142.02 53.8308 142.162C54.3895 142.304 54.8843 142.524 55.3152 142.822C55.7508 143.121 56.094 143.504 56.345 143.973C56.5959 144.437 56.7214 144.993 56.7214 145.642V153H53.8521V151.487H53.7669C53.5917 151.828 53.3573 152.129 53.0637 152.389C52.7702 152.645 52.4174 152.846 52.0055 152.993C51.5936 153.135 51.1177 153.206 50.5779 153.206ZM51.4444 151.118C51.8895 151.118 52.2825 151.03 52.6234 150.855C52.9643 150.675 53.2318 150.434 53.426 150.131C53.6201 149.828 53.7172 149.484 53.7172 149.101V147.943C53.6225 148.005 53.4922 148.062 53.3265 148.114C53.1655 148.161 52.9833 148.206 52.7797 148.249C52.5761 148.286 52.3725 148.322 52.1689 148.355C51.9653 148.384 51.7806 148.41 51.6149 148.433C51.2598 148.485 50.9496 148.568 50.6845 148.682C50.4193 148.795 50.2134 148.949 50.0666 149.143C49.9198 149.333 49.8464 149.57 49.8464 149.854C49.8464 150.266 49.9956 150.58 50.2939 150.798C50.5969 151.011 50.9804 151.118 51.4444 151.118ZM66.5882 149.009L70.5158 142.091H73.4988V153H70.6152V146.061L66.7019 153H63.6976V142.091H66.5882V149.009ZM82.373 149.655L85.3276 142.091H87.6287L83.3745 153H81.3645L77.2097 142.091H79.5037L82.373 149.655ZM78.8148 142.091V153H75.9242V142.091H78.8148ZM86.0804 153V142.091H88.9355V153H86.0804ZM96.2473 153.213C95.1252 153.213 94.1593 152.986 93.3496 152.531C92.5447 152.072 91.9244 151.423 91.4888 150.585C91.0532 149.742 90.8354 148.746 90.8354 147.595C90.8354 146.473 91.0532 145.488 91.4888 144.641C91.9244 143.793 92.5376 143.133 93.3283 142.659C94.1238 142.186 95.0565 141.949 96.1266 141.949C96.8463 141.949 97.5163 142.065 98.1365 142.297C98.7615 142.524 99.306 142.867 99.7701 143.327C100.239 143.786 100.603 144.364 100.864 145.06C101.124 145.751 101.254 146.561 101.254 147.489V148.32H92.0428V146.445H98.4064C98.4064 146.009 98.3117 145.623 98.1223 145.287C97.9329 144.951 97.6702 144.688 97.334 144.499C97.0025 144.304 96.6167 144.207 96.1763 144.207C95.717 144.207 95.3098 144.314 94.9547 144.527C94.6043 144.735 94.3297 145.017 94.1309 145.372C93.932 145.723 93.8302 146.113 93.8255 146.544V148.327C93.8255 148.866 93.9249 149.333 94.1238 149.726C94.3274 150.119 94.6138 150.422 94.9831 150.635C95.3525 150.848 95.7904 150.955 96.2971 150.955C96.6332 150.955 96.941 150.907 97.2203 150.812C97.4997 150.718 97.7388 150.576 97.9377 150.386C98.1365 150.197 98.2881 149.965 98.3922 149.69L101.191 149.875C101.048 150.547 100.757 151.134 100.317 151.636C99.8813 152.134 99.3179 152.522 98.6266 152.801C97.94 153.076 97.147 153.213 96.2473 153.213ZM110.821 146.338V148.717H105.125V146.338H110.821ZM106.119 142.091V153H103.229V142.091H106.119ZM112.718 142.091V153H109.848V142.091H112.718ZM122.657 146.338V148.717H116.961V146.338H122.657ZM117.955 142.091V153H115.065V142.091H117.955ZM124.553 142.091V153H121.684V142.091H124.553ZM131.83 153.213C130.727 153.213 129.772 152.979 128.968 152.51C128.167 152.036 127.549 151.378 127.114 150.536C126.678 149.688 126.46 148.705 126.46 147.588C126.46 146.461 126.678 145.476 127.114 144.634C127.549 143.786 128.167 143.128 128.968 142.659C129.772 142.186 130.727 141.949 131.83 141.949C132.933 141.949 133.885 142.186 134.685 142.659C135.49 143.128 136.11 143.786 136.546 144.634C136.981 145.476 137.199 146.461 137.199 147.588C137.199 148.705 136.981 149.688 136.546 150.536C136.11 151.378 135.49 152.036 134.685 152.51C133.885 152.979 132.933 153.213 131.83 153.213ZM131.844 150.869C132.346 150.869 132.765 150.727 133.101 150.443C133.437 150.154 133.691 149.761 133.861 149.264C134.036 148.767 134.124 148.201 134.124 147.567C134.124 146.932 134.036 146.366 133.861 145.869C133.691 145.372 133.437 144.979 133.101 144.69C132.765 144.402 132.346 144.257 131.844 144.257C131.337 144.257 130.911 144.402 130.566 144.69C130.225 144.979 129.967 145.372 129.791 145.869C129.621 146.366 129.536 146.932 129.536 147.567C129.536 148.201 129.621 148.767 129.791 149.264C129.967 149.761 130.225 150.154 130.566 150.443C130.911 150.727 131.337 150.869 131.844 150.869ZM143.795 153V142.091H148.447C149.792 142.091 150.855 142.347 151.636 142.858C152.417 143.369 152.808 144.096 152.808 145.038C152.808 145.63 152.588 146.123 152.148 146.516C151.707 146.909 151.096 147.174 150.315 147.311C150.969 147.358 151.525 147.508 151.984 147.759C152.448 148.005 152.801 148.324 153.042 148.717C153.289 149.11 153.412 149.546 153.412 150.024C153.412 150.644 153.246 151.177 152.915 151.622C152.588 152.067 152.107 152.408 151.473 152.645C150.843 152.882 150.074 153 149.165 153H143.795ZM146.615 150.734H149.165C149.586 150.734 149.915 150.635 150.152 150.436C150.393 150.232 150.514 149.955 150.514 149.605C150.514 149.217 150.393 148.911 150.152 148.689C149.915 148.466 149.586 148.355 149.165 148.355H146.615V150.734ZM146.615 146.58H148.511C148.814 146.58 149.072 146.537 149.285 146.452C149.503 146.362 149.669 146.234 149.782 146.068C149.901 145.902 149.96 145.706 149.96 145.479C149.96 145.143 149.825 144.88 149.555 144.69C149.285 144.501 148.916 144.406 148.447 144.406H146.615V146.58ZM83.4739 162.455V177H80.3986V165.374H80.3134L76.9824 167.462V164.734L80.5833 162.455H83.4739ZM87.5062 177L93.536 165.068V164.969H86.5119V162.455H96.7179V165.004L90.6809 177H87.5062ZM103.234 174.443V172.021L109.307 162.455H111.395V165.807H110.159L106.331 171.865V171.979H114.96V174.443H103.234ZM110.216 177V173.705L110.273 172.632V162.455H113.156V177H110.216ZM122.272 162.256C123.02 162.256 123.74 162.381 124.431 162.632C125.127 162.883 125.747 163.283 126.292 163.832C126.841 164.382 127.274 165.111 127.591 166.02C127.913 166.924 128.077 168.035 128.081 169.351C128.081 170.587 127.942 171.69 127.662 172.661C127.388 173.626 126.992 174.448 126.476 175.125C125.96 175.802 125.338 176.318 124.608 176.673C123.879 177.024 123.065 177.199 122.165 177.199C121.195 177.199 120.338 177.012 119.594 176.638C118.851 176.259 118.252 175.745 117.797 175.097C117.348 174.443 117.075 173.709 116.981 172.895H120.013C120.132 173.425 120.38 173.837 120.759 174.131C121.138 174.42 121.607 174.564 122.165 174.564C123.112 174.564 123.832 174.152 124.324 173.328C124.817 172.5 125.065 171.366 125.07 169.926H124.971C124.753 170.352 124.459 170.719 124.09 171.027C123.721 171.33 123.297 171.564 122.819 171.73C122.345 171.896 121.841 171.979 121.306 171.979C120.449 171.979 119.684 171.777 119.012 171.375C118.34 170.973 117.809 170.419 117.421 169.713C117.033 169.008 116.839 168.203 116.839 167.298C116.834 166.323 117.059 165.454 117.513 164.692C117.968 163.929 118.602 163.333 119.417 162.902C120.236 162.466 121.188 162.251 122.272 162.256ZM122.293 164.67C121.815 164.67 121.389 164.784 121.015 165.011C120.645 165.239 120.352 165.544 120.134 165.928C119.921 166.311 119.817 166.74 119.822 167.213C119.822 167.691 119.926 168.122 120.134 168.506C120.347 168.884 120.636 169.187 121.001 169.415C121.37 169.637 121.791 169.749 122.265 169.749C122.62 169.749 122.949 169.682 123.252 169.55C123.555 169.417 123.818 169.235 124.04 169.003C124.268 168.766 124.445 168.494 124.573 168.186C124.701 167.878 124.765 167.552 124.765 167.206C124.76 166.747 124.651 166.325 124.438 165.942C124.225 165.558 123.931 165.25 123.557 165.018C123.183 164.786 122.762 164.67 122.293 164.67ZM53.8938 186.455V201H50.8185V189.374H50.7333L47.4023 191.462V188.734L51.0032 186.455H53.8938ZM57.3509 201V198.784L62.5284 193.99C62.9688 193.564 63.3381 193.18 63.6364 192.839C63.9394 192.499 64.169 192.165 64.3253 191.838C64.4815 191.507 64.5597 191.149 64.5597 190.766C64.5597 190.339 64.4626 189.973 64.2685 189.665C64.0743 189.352 63.8092 189.113 63.473 188.947C63.1368 188.777 62.7557 188.692 62.3295 188.692C61.8845 188.692 61.4962 188.782 61.1648 188.962C60.8333 189.142 60.5777 189.4 60.3977 189.736C60.2178 190.072 60.1278 190.472 60.1278 190.936H57.2088C57.2088 189.984 57.4242 189.158 57.8551 188.457C58.286 187.757 58.8897 187.214 59.6662 186.831C60.4427 186.447 61.3376 186.256 62.3509 186.256C63.3925 186.256 64.2992 186.44 65.071 186.81C65.8475 187.174 66.4512 187.681 66.8821 188.33C67.313 188.978 67.5284 189.722 67.5284 190.56C67.5284 191.109 67.4195 191.651 67.2017 192.186C66.9886 192.721 66.6075 193.315 66.0582 193.969C65.509 194.617 64.7348 195.396 63.7358 196.305L61.6122 198.386V198.486H67.7202V201H57.3509ZM71.7454 201.185C71.2766 201.185 70.8742 201.019 70.538 200.688C70.2066 200.351 70.0408 199.949 70.0408 199.48C70.0408 199.016 70.2066 198.618 70.538 198.287C70.8742 197.955 71.2766 197.79 71.7454 197.79C72.1999 197.79 72.5977 197.955 72.9386 198.287C73.2795 198.618 73.4499 199.016 73.4499 199.48C73.4499 199.793 73.3694 200.079 73.2085 200.339C73.0522 200.595 72.8462 200.801 72.5906 200.957C72.3349 201.109 72.0531 201.185 71.7454 201.185ZM81.0227 201.32C79.8011 201.315 78.75 201.014 77.8693 200.418C76.9934 199.821 76.3187 198.957 75.8452 197.825C75.3764 196.694 75.1444 195.332 75.1491 193.741C75.1491 192.155 75.3835 190.804 75.8523 189.686C76.3258 188.569 77.0005 187.719 77.8764 187.136C78.7571 186.549 79.8059 186.256 81.0227 186.256C82.2396 186.256 83.286 186.549 84.1619 187.136C85.0426 187.723 85.7197 188.576 86.1932 189.693C86.6667 190.806 86.901 192.155 86.8963 193.741C86.8963 195.337 86.6596 196.701 86.1861 197.832C85.7173 198.964 85.045 199.828 84.169 200.425C83.2931 201.021 82.2443 201.32 81.0227 201.32ZM81.0227 198.77C81.8561 198.77 82.5213 198.351 83.0185 197.513C83.5156 196.675 83.7618 195.418 83.7571 193.741C83.7571 192.638 83.6435 191.72 83.4162 190.986C83.1937 190.252 82.8764 189.7 82.4645 189.331C82.0573 188.962 81.5767 188.777 81.0227 188.777C80.1941 188.777 79.5313 189.191 79.0341 190.02C78.5369 190.848 78.286 192.089 78.2812 193.741C78.2812 194.859 78.3925 195.792 78.6151 196.54C78.8423 197.283 79.1619 197.842 79.5739 198.216C79.9858 198.585 80.4688 198.77 81.0227 198.77ZM94.6715 201.199C93.9234 201.194 93.2013 201.069 92.5053 200.822C91.814 200.576 91.1938 200.176 90.6445 199.622C90.0953 199.068 89.6597 198.334 89.3377 197.42C89.0205 196.507 88.8619 195.384 88.8619 194.054C88.8666 192.832 89.0063 191.741 89.2809 190.78C89.5603 189.814 89.958 188.995 90.4741 188.322C90.9949 187.65 91.6175 187.139 92.342 186.788C93.0664 186.433 93.8784 186.256 94.7781 186.256C95.7487 186.256 96.6057 186.445 97.3491 186.824C98.0924 187.198 98.689 187.707 99.1388 188.351C99.5934 188.995 99.868 189.717 99.9627 190.517H96.93C96.8117 190.01 96.5631 189.613 96.1843 189.324C95.8055 189.035 95.3368 188.891 94.7781 188.891C93.8311 188.891 93.1114 189.303 92.619 190.126C92.1313 190.95 91.8827 192.07 91.8732 193.486H91.9727C92.1905 193.055 92.484 192.688 92.8533 192.385C93.2274 192.077 93.6512 191.843 94.1246 191.682C94.6029 191.516 95.1071 191.433 95.6374 191.433C96.4992 191.433 97.2662 191.637 97.9386 192.044C98.6109 192.446 99.1412 193 99.5295 193.706C99.9177 194.411 100.112 195.219 100.112 196.128C100.112 197.113 99.8822 197.989 99.4229 198.756C98.9684 199.523 98.3316 200.124 97.5124 200.56C96.698 200.991 95.7511 201.204 94.6715 201.199ZM94.6573 198.784C95.1308 198.784 95.5546 198.67 95.9286 198.443C96.3027 198.216 96.5962 197.908 96.8093 197.52C97.0224 197.132 97.1289 196.696 97.1289 196.213C97.1289 195.73 97.0224 195.297 96.8093 194.913C96.601 194.53 96.3121 194.224 95.9428 193.997C95.5735 193.77 95.1521 193.656 94.6786 193.656C94.3235 193.656 93.9944 193.723 93.6914 193.855C93.3931 193.988 93.1303 194.172 92.9031 194.409C92.6805 194.646 92.5053 194.92 92.3775 195.233C92.2496 195.541 92.1857 195.87 92.1857 196.22C92.1857 196.689 92.2923 197.117 92.5053 197.506C92.7231 197.894 93.0167 198.204 93.386 198.436C93.7601 198.668 94.1838 198.784 94.6573 198.784ZM103.484 201.185C103.015 201.185 102.612 201.019 102.276 200.688C101.945 200.351 101.779 199.949 101.779 199.48C101.779 199.016 101.945 198.618 102.276 198.287C102.612 197.955 103.015 197.79 103.484 197.79C103.938 197.79 104.336 197.955 104.677 198.287C105.018 198.618 105.188 199.016 105.188 199.48C105.188 199.793 105.108 200.079 104.947 200.339C104.79 200.595 104.585 200.801 104.329 200.957C104.073 201.109 103.791 201.185 103.484 201.185ZM107.644 201V198.784L112.821 193.99C113.262 193.564 113.631 193.18 113.929 192.839C114.232 192.499 114.462 192.165 114.618 191.838C114.775 191.507 114.853 191.149 114.853 190.766C114.853 190.339 114.756 189.973 114.561 189.665C114.367 189.352 114.102 189.113 113.766 188.947C113.43 188.777 113.049 188.692 112.623 188.692C112.177 188.692 111.789 188.782 111.458 188.962C111.126 189.142 110.871 189.4 110.691 189.736C110.511 190.072 110.421 190.472 110.421 190.936H107.502C107.502 189.984 107.717 189.158 108.148 188.457C108.579 187.757 109.183 187.214 109.959 186.831C110.736 186.447 111.631 186.256 112.644 186.256C113.685 186.256 114.592 186.44 115.364 186.81C116.141 187.174 116.744 187.681 117.175 188.33C117.606 188.978 117.821 189.722 117.821 190.56C117.821 191.109 117.712 191.651 117.495 192.186C117.282 192.721 116.9 193.315 116.351 193.969C115.802 194.617 115.028 195.396 114.029 196.305L111.905 198.386V198.486H118.013V201H107.644ZM125.945 201.32C124.723 201.315 123.672 201.014 122.791 200.418C121.915 199.821 121.241 198.957 120.767 197.825C120.298 196.694 120.066 195.332 120.071 193.741C120.071 192.155 120.305 190.804 120.774 189.686C121.248 188.569 121.922 187.719 122.798 187.136C123.679 186.549 124.728 186.256 125.945 186.256C127.161 186.256 128.208 186.549 129.084 187.136C129.964 187.723 130.642 188.576 131.115 189.693C131.589 190.806 131.823 192.155 131.818 193.741C131.818 195.337 131.581 196.701 131.108 197.832C130.639 198.964 129.967 199.828 129.091 200.425C128.215 201.021 127.166 201.32 125.945 201.32ZM125.945 198.77C126.778 198.77 127.443 198.351 127.94 197.513C128.438 196.675 128.684 195.418 128.679 193.741C128.679 192.638 128.565 191.72 128.338 190.986C128.116 190.252 127.798 189.7 127.386 189.331C126.979 188.962 126.499 188.777 125.945 188.777C125.116 188.777 124.453 189.191 123.956 190.02C123.459 190.848 123.208 192.089 123.203 193.741C123.203 194.859 123.314 195.792 123.537 196.54C123.764 197.283 124.084 197.842 124.496 198.216C124.908 198.585 125.391 198.77 125.945 198.77ZM134.011 201V198.784L139.189 193.99C139.629 193.564 139.998 193.18 140.297 192.839C140.6 192.499 140.829 192.165 140.985 191.838C141.142 191.507 141.22 191.149 141.22 190.766C141.22 190.339 141.123 189.973 140.929 189.665C140.734 189.352 140.469 189.113 140.133 188.947C139.797 188.777 139.416 188.692 138.99 188.692C138.545 188.692 138.156 188.782 137.825 188.962C137.493 189.142 137.238 189.4 137.058 189.736C136.878 190.072 136.788 190.472 136.788 190.936H133.869C133.869 189.984 134.084 189.158 134.515 188.457C134.946 187.757 135.55 187.214 136.326 186.831C137.103 186.447 137.998 186.256 139.011 186.256C140.053 186.256 140.959 186.44 141.731 186.81C142.508 187.174 143.111 187.681 143.542 188.33C143.973 188.978 144.189 189.722 144.189 190.56C144.189 191.109 144.08 191.651 143.862 192.186C143.649 192.721 143.268 193.315 142.718 193.969C142.169 194.617 141.395 195.396 140.396 196.305L138.272 198.386V198.486H144.38V201H134.011ZM151.985 201.199C150.924 201.199 149.98 201.017 149.151 200.652C148.327 200.283 147.676 199.776 147.198 199.132C146.725 198.483 146.481 197.735 146.467 196.888H149.563C149.582 197.243 149.698 197.555 149.911 197.825C150.129 198.09 150.418 198.296 150.778 198.443C151.138 198.59 151.542 198.663 151.992 198.663C152.461 198.663 152.875 198.58 153.235 198.415C153.595 198.249 153.877 198.019 154.08 197.726C154.284 197.432 154.386 197.094 154.386 196.71C154.386 196.322 154.277 195.979 154.059 195.68C153.846 195.377 153.538 195.141 153.136 194.97C152.738 194.8 152.264 194.714 151.715 194.714H150.359V192.456H151.715C152.179 192.456 152.589 192.375 152.944 192.214C153.304 192.054 153.583 191.831 153.782 191.547C153.981 191.258 154.08 190.922 154.08 190.538C154.08 190.174 153.993 189.854 153.817 189.58C153.647 189.3 153.406 189.082 153.093 188.926C152.785 188.77 152.425 188.692 152.013 188.692C151.597 188.692 151.216 188.768 150.87 188.919C150.524 189.066 150.247 189.277 150.039 189.551C149.831 189.826 149.719 190.148 149.705 190.517H146.758C146.772 189.679 147.011 188.94 147.475 188.301C147.939 187.662 148.564 187.162 149.35 186.803C150.141 186.438 151.033 186.256 152.028 186.256C153.031 186.256 153.91 186.438 154.663 186.803C155.415 187.167 156 187.66 156.417 188.28C156.838 188.895 157.047 189.587 157.042 190.354C157.047 191.168 156.793 191.848 156.282 192.392C155.775 192.937 155.115 193.282 154.3 193.429V193.543C155.371 193.68 156.185 194.052 156.744 194.658C157.307 195.259 157.586 196.012 157.582 196.916C157.586 197.745 157.347 198.481 156.864 199.125C156.386 199.769 155.726 200.276 154.883 200.645C154.04 201.014 153.074 201.199 151.985 201.199Z" fill="#BD00FF"/>
</svg>
