<svg width="198" height="258" viewBox="0 0 198 258" fill="none" xmlns="http://www.w3.org/2000/svg">
<rect width="198" height="258" fill="white"/>
<path d="M24.8523 126.119C24.2898 126.119 23.7884 126.023 23.348 125.83C22.9105 125.636 22.5625 125.368 22.304 125.024C22.0483 124.678 21.9091 124.276 21.8864 123.818H22.9602C22.983 124.099 23.0795 124.342 23.25 124.547C23.4205 124.749 23.6435 124.905 23.919 125.016C24.1946 125.126 24.5 125.182 24.8352 125.182C25.2102 125.182 25.5426 125.116 25.8324 124.986C26.1222 124.855 26.3494 124.673 26.5142 124.44C26.679 124.207 26.7614 123.938 26.7614 123.631C26.7614 123.31 26.6818 123.027 26.5227 122.783C26.3636 122.536 26.1307 122.342 25.8239 122.203C25.517 122.064 25.142 121.994 24.6989 121.994H24V121.057H24.6989C25.0455 121.057 25.3494 120.994 25.6108 120.869C25.875 120.744 26.081 120.568 26.2287 120.341C26.3793 120.114 26.4545 119.847 26.4545 119.54C26.4545 119.244 26.3892 118.987 26.2585 118.768C26.1278 118.55 25.9432 118.379 25.7045 118.257C25.4688 118.135 25.1903 118.074 24.8693 118.074C24.5682 118.074 24.2841 118.129 24.017 118.24C23.7528 118.348 23.5369 118.506 23.3693 118.713C23.2017 118.918 23.1108 119.165 23.0966 119.455H22.0739C22.0909 118.997 22.2287 118.597 22.4872 118.253C22.7457 117.906 23.0838 117.636 23.5014 117.443C23.9219 117.25 24.3835 117.153 24.8864 117.153C25.4261 117.153 25.8892 117.263 26.2756 117.482C26.6619 117.697 26.9588 117.983 27.1662 118.338C27.3736 118.693 27.4773 119.077 27.4773 119.489C27.4773 119.98 27.348 120.399 27.0895 120.746C26.8338 121.092 26.4858 121.332 26.0455 121.466V121.534C26.5966 121.625 27.027 121.859 27.3366 122.237C27.6463 122.612 27.8011 123.077 27.8011 123.631C27.8011 124.105 27.6719 124.531 27.4134 124.909C27.1577 125.284 26.8082 125.58 26.3651 125.795C25.9219 126.011 25.4176 126.119 24.8523 126.119ZM28.8622 127.875V125.062H29.4077C29.5412 124.923 29.6563 124.773 29.7528 124.611C29.8494 124.449 29.9332 124.257 30.0043 124.036C30.0781 123.811 30.1406 123.538 30.1918 123.217C30.2429 122.893 30.2884 122.503 30.3281 122.045L30.5497 119.455H34.7088V125.062H35.7145V127.875H34.7088V126H29.8679V127.875H28.8622ZM30.5497 125.062H33.7031V120.392H31.4872L31.3168 122.045C31.2457 122.73 31.1577 123.328 31.0526 123.839C30.9474 124.351 30.7798 124.759 30.5497 125.062ZM39.7937 126.136C39.163 126.136 38.619 125.997 38.1616 125.719C37.707 125.438 37.3562 125.045 37.109 124.543C36.8647 124.037 36.7425 123.449 36.7425 122.778C36.7425 122.108 36.8647 121.517 37.109 121.006C37.3562 120.491 37.6999 120.091 38.1403 119.804C38.5835 119.514 39.1005 119.369 39.6914 119.369C40.0323 119.369 40.369 119.426 40.7013 119.54C41.0337 119.653 41.3363 119.838 41.609 120.094C41.8817 120.347 42.0991 120.682 42.261 121.099C42.4229 121.517 42.5039 122.031 42.5039 122.642V123.068H37.4585V122.199H41.4812C41.4812 121.83 41.4073 121.5 41.2596 121.21C41.1147 120.92 40.9073 120.692 40.6374 120.524C40.3704 120.357 40.055 120.273 39.6914 120.273C39.2908 120.273 38.9442 120.372 38.6516 120.571C38.3619 120.767 38.1388 121.023 37.9826 121.338C37.8263 121.653 37.7482 121.991 37.7482 122.352V122.932C37.7482 123.426 37.8335 123.845 38.0039 124.189C38.1772 124.53 38.4173 124.79 38.7241 124.969C39.0309 125.145 39.3874 125.233 39.7937 125.233C40.0579 125.233 40.2965 125.196 40.5096 125.122C40.7255 125.045 40.9116 124.932 41.0678 124.781C41.2241 124.628 41.3448 124.437 41.43 124.21L42.4016 124.483C42.2994 124.812 42.1275 125.102 41.886 125.352C41.6445 125.599 41.3462 125.793 40.9911 125.932C40.636 126.068 40.2369 126.136 39.7937 126.136ZM46.6928 126.136C46.0792 126.136 45.5508 125.991 45.1076 125.702C44.6644 125.412 44.3235 125.013 44.0849 124.504C43.8462 123.996 43.7269 123.415 43.7269 122.761C43.7269 122.097 43.8491 121.51 44.0934 121.001C44.3406 120.49 44.6843 120.091 45.1246 119.804C45.5678 119.514 46.0849 119.369 46.6758 119.369C47.136 119.369 47.5508 119.455 47.9201 119.625C48.2894 119.795 48.592 120.034 48.8278 120.341C49.0636 120.648 49.2099 121.006 49.2667 121.415H48.261C48.1843 121.116 48.0138 120.852 47.7496 120.622C47.4883 120.389 47.136 120.273 46.6928 120.273C46.3008 120.273 45.957 120.375 45.6616 120.58C45.369 120.781 45.1403 121.067 44.9755 121.436C44.8136 121.803 44.7326 122.233 44.7326 122.727C44.7326 123.233 44.8121 123.673 44.9712 124.048C45.1332 124.423 45.3604 124.714 45.6531 124.922C45.9485 125.129 46.2951 125.233 46.6928 125.233C46.9542 125.233 47.1914 125.188 47.4045 125.097C47.6175 125.006 47.7979 124.875 47.9457 124.705C48.0934 124.534 48.1985 124.33 48.261 124.091H49.2667C49.2099 124.477 49.0692 124.825 48.8448 125.135C48.6232 125.442 48.3292 125.686 47.9627 125.868C47.5991 126.047 47.1758 126.136 46.6928 126.136ZM51.6062 121.824H53.4812C54.2482 121.824 54.8349 122.018 55.2411 122.408C55.6474 122.797 55.8505 123.29 55.8505 123.886C55.8505 124.278 55.7596 124.635 55.5778 124.956C55.396 125.274 55.1289 125.528 54.7766 125.719C54.4244 125.906 53.9925 126 53.4812 126H50.7369V119.455H51.7425V125.062H53.4812C53.8789 125.062 54.2056 124.957 54.4613 124.747C54.717 124.537 54.8448 124.267 54.8448 123.938C54.8448 123.591 54.717 123.308 54.4613 123.089C54.2056 122.871 53.8789 122.761 53.4812 122.761H51.6062V121.824ZM60.0575 127.875V125.062H60.603C60.7365 124.923 60.8516 124.773 60.9482 124.611C61.0447 124.449 61.1286 124.257 61.1996 124.036C61.2734 123.811 61.3359 123.538 61.3871 123.217C61.4382 122.893 61.4837 122.503 61.5234 122.045L61.745 119.455H65.9041V125.062H66.9098V127.875H65.9041V126H61.0632V127.875H60.0575ZM61.745 125.062H64.8984V120.392H62.6825L62.5121 122.045C62.4411 122.73 62.353 123.328 62.2479 123.839C62.1428 124.351 61.9751 124.759 61.745 125.062ZM70.9038 126.136C70.3129 126.136 69.7944 125.996 69.3484 125.714C68.9052 125.433 68.5586 125.04 68.3086 124.534C68.0614 124.028 67.9379 123.437 67.9379 122.761C67.9379 122.08 68.0614 121.484 68.3086 120.976C68.5586 120.467 68.9052 120.072 69.3484 119.791C69.7944 119.51 70.3129 119.369 70.9038 119.369C71.4947 119.369 72.0117 119.51 72.4549 119.791C72.9009 120.072 73.2475 120.467 73.4947 120.976C73.7447 121.484 73.8697 122.08 73.8697 122.761C73.8697 123.437 73.7447 124.028 73.4947 124.534C73.2475 125.04 72.9009 125.433 72.4549 125.714C72.0117 125.996 71.4947 126.136 70.9038 126.136ZM70.9038 125.233C71.3526 125.233 71.7219 125.118 72.0117 124.888C72.3015 124.658 72.516 124.355 72.6552 123.98C72.7944 123.605 72.864 123.199 72.864 122.761C72.864 122.324 72.7944 121.916 72.6552 121.538C72.516 121.161 72.3015 120.855 72.0117 120.622C71.7219 120.389 71.3526 120.273 70.9038 120.273C70.4549 120.273 70.0856 120.389 69.7958 120.622C69.506 120.855 69.2915 121.161 69.1523 121.538C69.0131 121.916 68.9435 122.324 68.9435 122.761C68.9435 123.199 69.0131 123.605 69.1523 123.98C69.2915 124.355 69.506 124.658 69.7958 124.888C70.0856 125.118 70.4549 125.233 70.9038 125.233ZM74.8253 126V125.062H75.0639C75.2599 125.062 75.4233 125.024 75.554 124.947C75.6847 124.868 75.7898 124.73 75.8693 124.534C75.9517 124.335 76.0142 124.06 76.0568 123.707C76.1023 123.352 76.1349 122.901 76.1548 122.352L76.2741 119.455H80.6378V126H79.6321V120.392H77.2287L77.1264 122.727C77.1037 123.264 77.0554 123.737 76.9815 124.146C76.9105 124.553 76.8011 124.893 76.6534 125.169C76.5085 125.445 76.3153 125.652 76.0739 125.791C75.8324 125.93 75.5298 126 75.1662 126H74.8253ZM82.0739 126L84.733 122.676L82.108 119.455H83.3011L85.483 122.25H86.0284V119.455H87.0341V122.25H87.5625L89.7443 119.455H90.9375L88.3295 122.676L90.9716 126H89.7614L87.5455 123.188H87.0341V126H86.0284V123.188H85.517L83.2841 126H82.0739ZM96.7894 122.267V123.205H93.1758V122.267H96.7894ZM93.4144 119.455V126H92.4087V119.455H93.4144ZM97.5565 119.455V126H96.5508V119.455H97.5565ZM101.319 126.153C100.904 126.153 100.528 126.075 100.19 125.919C99.8519 125.76 99.5835 125.531 99.3846 125.233C99.1857 124.932 99.0863 124.568 99.0863 124.142C99.0863 123.767 99.1602 123.463 99.3079 123.23C99.4556 122.994 99.6531 122.81 99.9002 122.676C100.147 122.543 100.42 122.443 100.718 122.378C101.02 122.31 101.322 122.256 101.626 122.216C102.024 122.165 102.346 122.126 102.593 122.101C102.843 122.072 103.025 122.026 103.139 121.96C103.255 121.895 103.314 121.781 103.314 121.619V121.585C103.314 121.165 103.199 120.838 102.968 120.605C102.741 120.372 102.396 120.256 101.933 120.256C101.453 120.256 101.076 120.361 100.804 120.571C100.531 120.781 100.339 121.006 100.228 121.244L99.2738 120.903C99.4442 120.506 99.6715 120.196 99.9556 119.974C100.243 119.75 100.555 119.594 100.893 119.506C101.234 119.415 101.569 119.369 101.899 119.369C102.109 119.369 102.35 119.395 102.623 119.446C102.899 119.494 103.164 119.595 103.42 119.749C103.679 119.902 103.893 120.134 104.064 120.443C104.234 120.753 104.319 121.168 104.319 121.688V126H103.314V125.114H103.262C103.194 125.256 103.081 125.408 102.922 125.57C102.762 125.732 102.551 125.869 102.287 125.983C102.022 126.097 101.7 126.153 101.319 126.153ZM101.473 125.25C101.87 125.25 102.206 125.172 102.478 125.016C102.754 124.859 102.961 124.658 103.1 124.411C103.243 124.163 103.314 123.903 103.314 123.631V122.71C103.271 122.761 103.177 122.808 103.032 122.851C102.89 122.891 102.725 122.926 102.538 122.957C102.353 122.986 102.173 123.011 101.997 123.034C101.824 123.054 101.683 123.071 101.575 123.085C101.314 123.119 101.069 123.175 100.842 123.251C100.618 123.325 100.436 123.437 100.297 123.588C100.16 123.736 100.092 123.937 100.092 124.193C100.092 124.543 100.221 124.807 100.48 124.986C100.741 125.162 101.072 125.25 101.473 125.25ZM114.388 117L114.899 117.614C114.7 117.807 114.47 117.942 114.209 118.018C113.947 118.095 113.652 118.142 113.322 118.159C112.993 118.176 112.626 118.193 112.223 118.21C111.768 118.227 111.392 118.338 111.094 118.543C110.795 118.747 110.565 119.043 110.403 119.429C110.241 119.815 110.138 120.29 110.092 120.852H110.178C110.399 120.443 110.706 120.142 111.098 119.949C111.49 119.756 111.911 119.659 112.359 119.659C112.871 119.659 113.331 119.778 113.74 120.017C114.149 120.256 114.473 120.609 114.712 121.078C114.95 121.547 115.07 122.125 115.07 122.812C115.07 123.497 114.947 124.088 114.703 124.585C114.462 125.082 114.122 125.466 113.685 125.736C113.25 126.003 112.74 126.136 112.155 126.136C111.57 126.136 111.057 125.999 110.616 125.723C110.176 125.445 109.834 125.033 109.589 124.487C109.345 123.939 109.223 123.261 109.223 122.455V121.756C109.223 120.298 109.47 119.193 109.964 118.44C110.462 117.687 111.209 117.298 112.206 117.273C112.558 117.261 112.872 117.259 113.148 117.264C113.423 117.27 113.663 117.257 113.868 117.226C114.072 117.195 114.246 117.119 114.388 117ZM112.155 125.233C112.55 125.233 112.889 125.134 113.173 124.935C113.46 124.736 113.68 124.456 113.834 124.095C113.987 123.732 114.064 123.304 114.064 122.812C114.064 122.335 113.986 121.929 113.83 121.594C113.676 121.259 113.456 121.003 113.169 120.827C112.882 120.651 112.538 120.562 112.138 120.562C111.845 120.562 111.582 120.612 111.349 120.712C111.116 120.811 110.918 120.957 110.753 121.151C110.588 121.344 110.46 121.58 110.369 121.858C110.281 122.136 110.234 122.455 110.229 122.812C110.229 123.545 110.401 124.132 110.744 124.572C111.088 125.013 111.558 125.233 112.155 125.233ZM117.477 121.824H119.352C120.119 121.824 120.706 122.018 121.112 122.408C121.518 122.797 121.722 123.29 121.722 123.886C121.722 124.278 121.631 124.635 121.449 124.956C121.267 125.274 121 125.528 120.648 125.719C120.295 125.906 119.864 126 119.352 126H116.608V119.455H117.614V125.062H119.352C119.75 125.062 120.077 124.957 120.332 124.747C120.588 124.537 120.716 124.267 120.716 123.938C120.716 123.591 120.588 123.308 120.332 123.089C120.077 122.871 119.75 122.761 119.352 122.761H117.477V121.824ZM122.761 126V119.455H123.767V126H122.761ZM125.233 120.392V119.455H130.551V120.392H128.403V126H127.398V120.392H125.233ZM132.887 121.824H134.762C135.529 121.824 136.116 122.018 136.522 122.408C136.929 122.797 137.132 123.29 137.132 123.886C137.132 124.278 137.041 124.635 136.859 124.956C136.677 125.274 136.41 125.528 136.058 125.719C135.706 125.906 135.274 126 134.762 126H132.018V119.455H133.024V125.062H134.762C135.16 125.062 135.487 124.957 135.743 124.747C135.998 124.537 136.126 124.267 136.126 123.938C136.126 123.591 135.998 123.308 135.743 123.089C135.487 122.871 135.16 122.761 134.762 122.761H132.887V121.824ZM144.697 128.233V117.273H145.702V128.233H144.697ZM144.697 126.136C144.254 126.136 143.85 126.057 143.487 125.898C143.123 125.736 142.81 125.507 142.549 125.212C142.288 124.913 142.086 124.557 141.944 124.142C141.802 123.727 141.731 123.267 141.731 122.761C141.731 122.25 141.802 121.787 141.944 121.372C142.086 120.955 142.288 120.597 142.549 120.298C142.81 120 143.123 119.771 143.487 119.612C143.85 119.45 144.254 119.369 144.697 119.369H145.004V126.136H144.697ZM144.697 125.233H144.867V120.273H144.697C144.362 120.273 144.07 120.341 143.823 120.477C143.576 120.611 143.371 120.794 143.21 121.027C143.05 121.257 142.931 121.521 142.852 121.82C142.775 122.118 142.737 122.432 142.737 122.761C142.737 123.199 142.806 123.605 142.945 123.98C143.085 124.355 143.299 124.658 143.589 124.888C143.879 125.118 144.248 125.233 144.697 125.233ZM145.702 126.136H145.396V119.369H145.702C146.146 119.369 146.549 119.45 146.913 119.612C147.276 119.771 147.589 120 147.85 120.298C148.112 120.597 148.313 120.955 148.455 121.372C148.597 121.787 148.668 122.25 148.668 122.761C148.668 123.267 148.597 123.727 148.455 124.142C148.313 124.557 148.112 124.913 147.85 125.212C147.589 125.507 147.276 125.736 146.913 125.898C146.549 126.057 146.146 126.136 145.702 126.136ZM145.702 125.233C146.04 125.233 146.332 125.168 146.576 125.037C146.823 124.903 147.026 124.722 147.185 124.491C147.347 124.259 147.467 123.994 147.543 123.699C147.623 123.401 147.663 123.088 147.663 122.761C147.663 122.324 147.593 121.916 147.454 121.538C147.315 121.161 147.1 120.855 146.81 120.622C146.521 120.389 146.151 120.273 145.702 120.273H145.532V125.233H145.702ZM152.865 126.136C152.274 126.136 151.755 125.996 151.309 125.714C150.866 125.433 150.52 125.04 150.27 124.534C150.022 124.028 149.899 123.437 149.899 122.761C149.899 122.08 150.022 121.484 150.27 120.976C150.52 120.467 150.866 120.072 151.309 119.791C151.755 119.51 152.274 119.369 152.865 119.369C153.456 119.369 153.973 119.51 154.416 119.791C154.862 120.072 155.208 120.467 155.456 120.976C155.706 121.484 155.831 122.08 155.831 122.761C155.831 123.437 155.706 124.028 155.456 124.534C155.208 125.04 154.862 125.433 154.416 125.714C153.973 125.996 153.456 126.136 152.865 126.136ZM152.865 125.233C153.314 125.233 153.683 125.118 153.973 124.888C154.262 124.658 154.477 124.355 154.616 123.98C154.755 123.605 154.825 123.199 154.825 122.761C154.825 122.324 154.755 121.916 154.616 121.538C154.477 121.161 154.262 120.855 153.973 120.622C153.683 120.389 153.314 120.273 152.865 120.273C152.416 120.273 152.047 120.389 151.757 120.622C151.467 120.855 151.252 121.161 151.113 121.538C150.974 121.916 150.904 122.324 150.904 122.761C150.904 123.199 150.974 123.605 151.113 123.98C151.252 124.355 151.467 124.658 151.757 124.888C152.047 125.118 152.416 125.233 152.865 125.233ZM156.51 120.392V119.455H161.828V120.392H159.681V126H158.675V120.392H156.51ZM163.295 126V119.455H164.301V122.301H164.966L167.318 119.455H168.614L165.972 122.608L168.648 126H167.352L165.205 123.239H164.301V126H163.295ZM171.667 126.153C171.252 126.153 170.876 126.075 170.538 125.919C170.2 125.76 169.931 125.531 169.732 125.233C169.533 124.932 169.434 124.568 169.434 124.142C169.434 123.767 169.508 123.463 169.656 123.23C169.803 122.994 170.001 122.81 170.248 122.676C170.495 122.543 170.768 122.443 171.066 122.378C171.367 122.31 171.67 122.256 171.974 122.216C172.371 122.165 172.694 122.126 172.941 122.101C173.191 122.072 173.373 122.026 173.487 121.96C173.603 121.895 173.661 121.781 173.661 121.619V121.585C173.661 121.165 173.546 120.838 173.316 120.605C173.089 120.372 172.744 120.256 172.281 120.256C171.8 120.256 171.424 120.361 171.151 120.571C170.879 120.781 170.687 121.006 170.576 121.244L169.621 120.903C169.792 120.506 170.019 120.196 170.303 119.974C170.59 119.75 170.903 119.594 171.241 119.506C171.582 119.415 171.917 119.369 172.246 119.369C172.457 119.369 172.698 119.395 172.971 119.446C173.246 119.494 173.512 119.595 173.768 119.749C174.026 119.902 174.241 120.134 174.411 120.443C174.582 120.753 174.667 121.168 174.667 121.688V126H173.661V125.114H173.61C173.542 125.256 173.428 125.408 173.269 125.57C173.11 125.732 172.898 125.869 172.634 125.983C172.37 126.097 172.048 126.153 171.667 126.153ZM171.82 125.25C172.218 125.25 172.553 125.172 172.826 125.016C173.102 124.859 173.309 124.658 173.448 124.411C173.59 124.163 173.661 123.903 173.661 123.631V122.71C173.619 122.761 173.525 122.808 173.38 122.851C173.238 122.891 173.073 122.926 172.886 122.957C172.701 122.986 172.521 123.011 172.344 123.034C172.171 123.054 172.031 123.071 171.923 123.085C171.661 123.119 171.417 123.175 171.19 123.251C170.965 123.325 170.783 123.437 170.644 123.588C170.508 123.736 170.44 123.937 170.44 124.193C170.44 124.543 170.569 124.807 170.827 124.986C171.089 125.162 171.42 125.25 171.82 125.25ZM22.0568 141V132.273H27.3239V133.21H23.1136V135.938H25.3295C25.9545 135.938 26.4815 136.04 26.9105 136.244C27.3423 136.449 27.669 136.737 27.8906 137.109C28.1151 137.482 28.2273 137.92 28.2273 138.426C28.2273 138.932 28.1151 139.378 27.8906 139.764C27.669 140.151 27.3423 140.453 26.9105 140.672C26.4815 140.891 25.9545 141 25.3295 141H22.0568ZM23.1136 140.08H25.3295C25.7273 140.08 26.0639 140 26.3395 139.841C26.6179 139.679 26.8281 139.472 26.9702 139.219C27.1151 138.963 27.1875 138.693 27.1875 138.409C27.1875 137.991 27.027 137.632 26.706 137.331C26.3849 137.027 25.9261 136.875 25.3295 136.875H23.1136V140.08ZM32.4897 141.136C31.8988 141.136 31.3803 140.996 30.9343 140.714C30.4911 140.433 30.1445 140.04 29.8945 139.534C29.6474 139.028 29.5238 138.437 29.5238 137.761C29.5238 137.08 29.6474 136.484 29.8945 135.976C30.1445 135.467 30.4911 135.072 30.9343 134.791C31.3803 134.51 31.8988 134.369 32.4897 134.369C33.0806 134.369 33.5977 134.51 34.0408 134.791C34.4869 135.072 34.8335 135.467 35.0806 135.976C35.3306 136.484 35.4556 137.08 35.4556 137.761C35.4556 138.437 35.3306 139.028 35.0806 139.534C34.8335 140.04 34.4869 140.433 34.0408 140.714C33.5977 140.996 33.0806 141.136 32.4897 141.136ZM32.4897 140.233C32.9386 140.233 33.3079 140.118 33.5977 139.888C33.8874 139.658 34.1019 139.355 34.2411 138.98C34.3803 138.605 34.4499 138.199 34.4499 137.761C34.4499 137.324 34.3803 136.916 34.2411 136.538C34.1019 136.161 33.8874 135.855 33.5977 135.622C33.3079 135.389 32.9386 135.273 32.4897 135.273C32.0408 135.273 31.6715 135.389 31.3817 135.622C31.092 135.855 30.8775 136.161 30.7383 136.538C30.5991 136.916 30.5295 137.324 30.5295 137.761C30.5295 138.199 30.5991 138.605 30.7383 138.98C30.8775 139.355 31.092 139.658 31.3817 139.888C31.6715 140.118 32.0408 140.233 32.4897 140.233ZM36.9908 143.455V134.455H37.9624V135.494H38.0817C38.1555 135.381 38.2578 135.236 38.3885 135.06C38.522 134.881 38.7124 134.722 38.9595 134.582C39.2095 134.44 39.5476 134.369 39.9737 134.369C40.5249 134.369 41.0107 134.507 41.4311 134.783C41.8516 135.058 42.1797 135.449 42.4155 135.955C42.6513 136.46 42.7692 137.057 42.7692 137.744C42.7692 138.438 42.6513 139.038 42.4155 139.547C42.1797 140.053 41.853 140.445 41.4354 140.723C41.0178 140.999 40.5362 141.136 39.9908 141.136C39.5703 141.136 39.2337 141.067 38.9808 140.928C38.728 140.786 38.5334 140.625 38.397 140.446C38.2607 140.264 38.1555 140.114 38.0817 139.994H37.9964V143.455H36.9908ZM37.9794 137.727C37.9794 138.222 38.0518 138.658 38.1967 139.036C38.3416 139.411 38.5533 139.705 38.8317 139.918C39.1101 140.128 39.451 140.233 39.8544 140.233C40.2749 140.233 40.6257 140.122 40.907 139.901C41.1911 139.676 41.4041 139.375 41.5462 138.997C41.6911 138.616 41.7635 138.193 41.7635 137.727C41.7635 137.267 41.6925 136.852 41.5504 136.483C41.4112 136.111 41.1996 135.817 40.9155 135.601C40.6342 135.382 40.2805 135.273 39.8544 135.273C39.4453 135.273 39.1016 135.376 38.8232 135.584C38.5447 135.788 38.3345 136.075 38.1925 136.445C38.0504 136.811 37.9794 137.239 37.9794 137.727ZM45.3089 139.517L48.4624 134.455H49.6214V141H48.6158V135.938L45.4794 141H44.3033V134.455H45.3089V139.517ZM54.1225 141.136C53.5089 141.136 52.9805 140.991 52.5373 140.702C52.0941 140.412 51.7532 140.013 51.5146 139.504C51.2759 138.996 51.1566 138.415 51.1566 137.761C51.1566 137.097 51.2788 136.51 51.5231 136.001C51.7702 135.49 52.114 135.091 52.5543 134.804C52.9975 134.514 53.5146 134.369 54.1055 134.369C54.5657 134.369 54.9805 134.455 55.3498 134.625C55.7191 134.795 56.0217 135.034 56.2575 135.341C56.4933 135.648 56.6396 136.006 56.6964 136.415H55.6907C55.614 136.116 55.4435 135.852 55.1793 135.622C54.918 135.389 54.5657 135.273 54.1225 135.273C53.7305 135.273 53.3867 135.375 53.0913 135.58C52.7987 135.781 52.57 136.067 52.4052 136.436C52.2433 136.803 52.1623 137.233 52.1623 137.727C52.1623 138.233 52.2418 138.673 52.4009 139.048C52.5629 139.423 52.7901 139.714 53.0827 139.922C53.3782 140.129 53.7248 140.233 54.1225 140.233C54.3839 140.233 54.6211 140.188 54.8342 140.097C55.0472 140.006 55.2276 139.875 55.3754 139.705C55.5231 139.534 55.6282 139.33 55.6907 139.091H56.6964C56.6396 139.477 56.4989 139.825 56.2745 140.135C56.0529 140.442 55.7589 140.686 55.3924 140.868C55.0288 141.047 54.6055 141.136 54.1225 141.136ZM60.0927 141.153C59.6779 141.153 59.3015 141.075 58.9634 140.919C58.6254 140.76 58.3569 140.531 58.158 140.233C57.9592 139.932 57.8597 139.568 57.8597 139.142C57.8597 138.767 57.9336 138.463 58.0813 138.23C58.229 137.994 58.4265 137.81 58.6737 137.676C58.9208 137.543 59.1935 137.443 59.4918 137.378C59.793 137.31 60.0955 137.256 60.3995 137.216C60.7972 137.165 61.1197 137.126 61.3668 137.101C61.6168 137.072 61.7987 137.026 61.9123 136.96C62.0288 136.895 62.087 136.781 62.087 136.619V136.585C62.087 136.165 61.9719 135.838 61.7418 135.605C61.5146 135.372 61.1694 135.256 60.7063 135.256C60.2262 135.256 59.8498 135.361 59.5771 135.571C59.3043 135.781 59.1126 136.006 59.0018 136.244L58.0472 135.903C58.2177 135.506 58.445 135.196 58.729 134.974C59.016 134.75 59.3285 134.594 59.6665 134.506C60.0075 134.415 60.3427 134.369 60.6722 134.369C60.8825 134.369 61.1239 134.395 61.3967 134.446C61.6722 134.494 61.9379 134.595 62.1935 134.749C62.4521 134.902 62.6665 135.134 62.837 135.443C63.0075 135.753 63.0927 136.168 63.0927 136.688V141H62.087V140.114H62.0359C61.9677 140.256 61.854 140.408 61.695 140.57C61.5359 140.732 61.3242 140.869 61.06 140.983C60.7958 141.097 60.4734 141.153 60.0927 141.153ZM60.2461 140.25C60.6438 140.25 60.979 140.172 61.2518 140.016C61.5273 139.859 61.7347 139.658 61.8739 139.411C62.016 139.163 62.087 138.903 62.087 138.631V137.71C62.0444 137.761 61.9506 137.808 61.8058 137.851C61.6637 137.891 61.4989 137.926 61.3114 137.957C61.1268 137.986 60.9464 138.011 60.7702 138.034C60.5969 138.054 60.4563 138.071 60.3484 138.085C60.087 138.119 59.8427 138.175 59.6154 138.251C59.391 138.325 59.2092 138.437 59.07 138.588C58.9336 138.736 58.8654 138.937 58.8654 139.193C58.8654 139.543 58.9947 139.807 59.2532 139.986C59.5146 140.162 59.8455 140.25 60.2461 140.25ZM71.8828 139.636L74.1669 134.455H75.1214L72.2919 141H71.4737L68.6953 134.455H69.6328L71.8828 139.636ZM69.3089 134.455V141H68.3033V134.455H69.3089ZM74.4567 141V134.455H75.4624V141H74.4567ZM76.7237 141V140.062H76.9624C77.1584 140.062 77.3217 140.024 77.4524 139.947C77.5831 139.868 77.6882 139.73 77.7678 139.534C77.8501 139.335 77.9126 139.06 77.9553 138.707C78.0007 138.352 78.0334 137.901 78.0533 137.352L78.1726 134.455H82.5362V141H81.5305V135.392H79.1271L79.0249 137.727C79.0021 138.264 78.9538 138.737 78.88 139.146C78.8089 139.553 78.6996 139.893 78.5518 140.169C78.407 140.445 78.2138 140.652 77.9723 140.791C77.7308 140.93 77.4283 141 77.0646 141H76.7237ZM86.3075 141.153C85.8928 141.153 85.5163 141.075 85.1783 140.919C84.8402 140.76 84.5717 140.531 84.3729 140.233C84.174 139.932 84.0746 139.568 84.0746 139.142C84.0746 138.767 84.1484 138.463 84.2962 138.23C84.4439 137.994 84.6413 137.81 84.8885 137.676C85.1357 137.543 85.4084 137.443 85.7067 137.378C86.0078 137.31 86.3104 137.256 86.6143 137.216C87.0121 137.165 87.3345 137.126 87.5817 137.101C87.8317 137.072 88.0135 137.026 88.1271 136.96C88.2436 136.895 88.3018 136.781 88.3018 136.619V136.585C88.3018 136.165 88.1868 135.838 87.9567 135.605C87.7294 135.372 87.3842 135.256 86.9212 135.256C86.4411 135.256 86.0646 135.361 85.7919 135.571C85.5192 135.781 85.3274 136.006 85.2166 136.244L84.2621 135.903C84.4325 135.506 84.6598 135.196 84.9439 134.974C85.2308 134.75 85.5433 134.594 85.8814 134.506C86.2223 134.415 86.5575 134.369 86.8871 134.369C87.0973 134.369 87.3388 134.395 87.6115 134.446C87.8871 134.494 88.1527 134.595 88.4084 134.749C88.6669 134.902 88.8814 135.134 89.0518 135.443C89.2223 135.753 89.3075 136.168 89.3075 136.688V141H88.3018V140.114H88.2507C88.1825 140.256 88.0689 140.408 87.9098 140.57C87.7507 140.732 87.5391 140.869 87.2749 140.983C87.0107 141.097 86.6882 141.153 86.3075 141.153ZM86.4609 140.25C86.8587 140.25 87.1939 140.172 87.4666 140.016C87.7422 139.859 87.9496 139.658 88.0888 139.411C88.2308 139.163 88.3018 138.903 88.3018 138.631V137.71C88.2592 137.761 88.1655 137.808 88.0206 137.851C87.8786 137.891 87.7138 137.926 87.5263 137.957C87.3416 137.986 87.1612 138.011 86.9851 138.034C86.8118 138.054 86.6712 138.071 86.5632 138.085C86.3018 138.119 86.0575 138.175 85.8303 138.251C85.6058 138.325 85.424 138.437 85.2848 138.588C85.1484 138.736 85.0803 138.937 85.0803 139.193C85.0803 139.543 85.2095 139.807 85.468 139.986C85.7294 140.162 86.0604 140.25 86.4609 140.25ZM90.4442 142.875V140.062H90.9897C91.1232 139.923 91.2383 139.773 91.3349 139.611C91.4315 139.449 91.5153 139.257 91.5863 139.036C91.6602 138.811 91.7227 138.538 91.7738 138.217C91.8249 137.893 91.8704 137.503 91.9102 137.045L92.1317 134.455H96.2908V140.062H97.2965V142.875H96.2908V141H91.4499V142.875H90.4442ZM92.1317 140.062H95.2852V135.392H93.0692L92.8988 137.045C92.8278 137.73 92.7397 138.328 92.6346 138.839C92.5295 139.351 92.3619 139.759 92.1317 140.062ZM98.6314 134.455H99.6371V140.062H102.109V134.455H103.114V140.062H105.586V134.455H106.592V141H98.6314V134.455ZM111.173 141.136C110.542 141.136 109.998 140.997 109.54 140.719C109.086 140.438 108.735 140.045 108.488 139.543C108.244 139.037 108.121 138.449 108.121 137.778C108.121 137.108 108.244 136.517 108.488 136.006C108.735 135.491 109.079 135.091 109.519 134.804C109.962 134.514 110.479 134.369 111.07 134.369C111.411 134.369 111.748 134.426 112.08 134.54C112.413 134.653 112.715 134.838 112.988 135.094C113.261 135.347 113.478 135.682 113.64 136.099C113.802 136.517 113.883 137.031 113.883 137.642V138.068H108.837V137.199H112.86C112.86 136.83 112.786 136.5 112.638 136.21C112.494 135.92 112.286 135.692 112.016 135.524C111.749 135.357 111.434 135.273 111.07 135.273C110.67 135.273 110.323 135.372 110.031 135.571C109.741 135.767 109.518 136.023 109.362 136.338C109.205 136.653 109.127 136.991 109.127 137.352V137.932C109.127 138.426 109.212 138.845 109.383 139.189C109.556 139.53 109.796 139.79 110.103 139.969C110.41 140.145 110.766 140.233 111.173 140.233C111.437 140.233 111.675 140.196 111.888 140.122C112.104 140.045 112.29 139.932 112.447 139.781C112.603 139.628 112.724 139.437 112.809 139.21L113.781 139.483C113.678 139.812 113.506 140.102 113.265 140.352C113.023 140.599 112.725 140.793 112.37 140.932C112.015 141.068 111.616 141.136 111.173 141.136ZM119.452 134.455V135.392H116.418V141H115.413V134.455H119.452ZM123.24 141.136C122.649 141.136 122.13 140.996 121.684 140.714C121.241 140.433 120.895 140.04 120.645 139.534C120.397 139.028 120.274 138.437 120.274 137.761C120.274 137.08 120.397 136.484 120.645 135.976C120.895 135.467 121.241 135.072 121.684 134.791C122.13 134.51 122.649 134.369 123.24 134.369C123.831 134.369 124.348 134.51 124.791 134.791C125.237 135.072 125.583 135.467 125.831 135.976C126.081 136.484 126.206 137.08 126.206 137.761C126.206 138.437 126.081 139.028 125.831 139.534C125.583 140.04 125.237 140.433 124.791 140.714C124.348 140.996 123.831 141.136 123.24 141.136ZM123.24 140.233C123.689 140.233 124.058 140.118 124.348 139.888C124.637 139.658 124.852 139.355 124.991 138.98C125.13 138.605 125.2 138.199 125.2 137.761C125.2 137.324 125.13 136.916 124.991 136.538C124.852 136.161 124.637 135.855 124.348 135.622C124.058 135.389 123.689 135.273 123.24 135.273C122.791 135.273 122.422 135.389 122.132 135.622C121.842 135.855 121.627 136.161 121.488 136.538C121.349 136.916 121.279 137.324 121.279 137.761C121.279 138.199 121.349 138.605 121.488 138.98C121.627 139.355 121.842 139.658 122.132 139.888C122.422 140.118 122.791 140.233 123.24 140.233Z" fill="black"/>
</svg>
