<svg width="205" height="258" viewBox="0 0 205 258" fill="none" xmlns="http://www.w3.org/2000/svg">
<rect width="205" height="258" fill="#ECFF0F"/>
<path d="M60.4954 119.509V113.55H61.4826C61.8188 113.308 62.1265 112.967 62.4059 112.527C62.6853 112.082 62.9244 111.469 63.1232 110.688C63.3221 109.902 63.4641 108.874 63.5494 107.605L63.9613 101.455H73.5849V113.55H75.1758V119.494H72.2212V116H63.4499V119.509H60.4954ZM65.0337 113.55H70.6303V103.99H66.7312L66.5039 107.605C66.4424 108.566 66.3406 109.419 66.1985 110.162C66.0612 110.905 65.8931 111.556 65.6942 112.115C65.5001 112.669 65.2799 113.147 65.0337 113.55ZM80.0994 116.206C79.4034 116.206 78.7831 116.085 78.2386 115.844C77.6941 115.598 77.2633 115.235 76.946 114.757C76.6335 114.274 76.4773 113.673 76.4773 112.953C76.4773 112.347 76.5885 111.838 76.8111 111.426C77.0336 111.014 77.3366 110.683 77.7202 110.432C78.1037 110.181 78.5393 109.991 79.027 109.864C79.5194 109.736 80.0355 109.646 80.5753 109.594C81.2098 109.527 81.7211 109.466 82.1094 109.409C82.4976 109.348 82.7794 109.258 82.9545 109.139C83.1297 109.021 83.2173 108.846 83.2173 108.614V108.571C83.2173 108.121 83.0753 107.773 82.7912 107.527C82.5118 107.281 82.1141 107.158 81.598 107.158C81.0535 107.158 80.6203 107.278 80.2983 107.52C79.9763 107.757 79.7633 108.055 79.6591 108.415L76.8608 108.188C77.0028 107.525 77.2822 106.952 77.6989 106.469C78.1155 105.981 78.6529 105.607 79.3111 105.347C79.974 105.081 80.741 104.949 81.6122 104.949C82.2183 104.949 82.7983 105.02 83.3523 105.162C83.911 105.304 84.4058 105.524 84.8366 105.822C85.2723 106.121 85.6155 106.504 85.8665 106.973C86.1174 107.437 86.2429 107.993 86.2429 108.642V116H83.3736V114.487H83.2884C83.1132 114.828 82.8788 115.129 82.5852 115.389C82.2917 115.645 81.9389 115.846 81.527 115.993C81.1151 116.135 80.6392 116.206 80.0994 116.206ZM80.9659 114.118C81.411 114.118 81.804 114.03 82.1449 113.855C82.4858 113.675 82.7533 113.434 82.9474 113.131C83.1416 112.828 83.2386 112.484 83.2386 112.101V110.943C83.1439 111.005 83.0137 111.062 82.848 111.114C82.687 111.161 82.5047 111.206 82.3011 111.249C82.0975 111.286 81.8939 111.322 81.6903 111.355C81.4867 111.384 81.3021 111.41 81.1364 111.433C80.7813 111.485 80.4711 111.568 80.206 111.682C79.9408 111.795 79.7348 111.949 79.5881 112.143C79.4413 112.333 79.3679 112.57 79.3679 112.854C79.3679 113.266 79.517 113.58 79.8153 113.798C80.1184 114.011 80.5019 114.118 80.9659 114.118ZM87.951 116L87.9368 113.599H88.299C88.5547 113.599 88.7749 113.538 88.9595 113.415C89.1489 113.287 89.3052 113.081 89.4283 112.797C89.5514 112.513 89.6484 112.136 89.7195 111.668C89.7905 111.194 89.8378 110.612 89.8615 109.92L90.0391 105.091H98.3345V116H95.451V107.47H92.7592L92.5888 110.801C92.5462 111.715 92.4349 112.501 92.255 113.159C92.0798 113.817 91.8359 114.357 91.5234 114.778C91.2109 115.195 90.8345 115.503 90.3942 115.702C89.9538 115.901 89.4425 116 88.8601 116H87.951ZM102.576 108.443H105.836C107.28 108.443 108.407 108.789 109.217 109.48C110.027 110.167 110.431 111.085 110.431 112.236C110.431 112.984 110.249 113.642 109.885 114.21C109.52 114.774 108.994 115.214 108.308 115.531C107.621 115.844 106.797 116 105.836 116H100.68V105.091H103.571V113.621H105.836C106.343 113.621 106.76 113.493 107.086 113.237C107.413 112.982 107.579 112.655 107.583 112.257C107.579 111.836 107.413 111.492 107.086 111.227C106.76 110.957 106.343 110.822 105.836 110.822H102.576V108.443ZM112.438 105.091H115.328V113.599H118.404V105.091H121.294V113.599H124.37V105.091H127.26V116H112.438V105.091ZM134.577 116.213C133.455 116.213 132.489 115.986 131.68 115.531C130.875 115.072 130.254 114.423 129.819 113.585C129.383 112.742 129.165 111.746 129.165 110.595C129.165 109.473 129.383 108.488 129.819 107.641C130.254 106.793 130.868 106.133 131.658 105.659C132.454 105.186 133.387 104.949 134.457 104.949C135.176 104.949 135.846 105.065 136.467 105.297C137.092 105.524 137.636 105.867 138.1 106.327C138.569 106.786 138.933 107.364 139.194 108.06C139.454 108.751 139.585 109.561 139.585 110.489V111.32H130.373V109.445H136.737C136.737 109.009 136.642 108.623 136.452 108.287C136.263 107.951 136 107.688 135.664 107.499C135.333 107.304 134.947 107.207 134.506 107.207C134.047 107.207 133.64 107.314 133.285 107.527C132.934 107.735 132.66 108.017 132.461 108.372C132.262 108.723 132.16 109.113 132.156 109.544V111.327C132.156 111.866 132.255 112.333 132.454 112.726C132.657 113.119 132.944 113.422 133.313 113.635C133.683 113.848 134.121 113.955 134.627 113.955C134.963 113.955 135.271 113.907 135.55 113.812C135.83 113.718 136.069 113.576 136.268 113.386C136.467 113.197 136.618 112.965 136.722 112.69L139.521 112.875C139.379 113.547 139.087 114.134 138.647 114.636C138.211 115.134 137.648 115.522 136.957 115.801C136.27 116.076 135.477 116.213 134.577 116.213ZM54.4105 140V129.091H59.0625C60.4072 129.091 61.4702 129.347 62.2514 129.858C63.0327 130.369 63.4233 131.096 63.4233 132.038C63.4233 132.63 63.2031 133.123 62.7628 133.516C62.3224 133.909 61.7116 134.174 60.9304 134.311C61.5838 134.358 62.1402 134.508 62.5994 134.759C63.0634 135.005 63.4162 135.324 63.6577 135.717C63.9039 136.11 64.027 136.546 64.027 137.024C64.027 137.644 63.8613 138.177 63.5298 138.622C63.2031 139.067 62.7225 139.408 62.0881 139.645C61.4583 139.882 60.6889 140 59.7798 140H54.4105ZM57.2301 137.734H59.7798C60.2012 137.734 60.5303 137.635 60.767 137.436C61.0085 137.232 61.1293 136.955 61.1293 136.605C61.1293 136.217 61.0085 135.911 60.767 135.689C60.5303 135.466 60.2012 135.355 59.7798 135.355H57.2301V137.734ZM57.2301 133.58H59.1264C59.4295 133.58 59.6875 133.537 59.9006 133.452C60.1184 133.362 60.2841 133.234 60.3977 133.068C60.5161 132.902 60.5753 132.706 60.5753 132.479C60.5753 132.143 60.4403 131.88 60.1705 131.69C59.9006 131.501 59.5312 131.406 59.0625 131.406H57.2301V133.58ZM65.3729 136.911H68.3061C68.3203 137.27 68.4813 137.554 68.7891 137.763C69.0968 137.971 69.4946 138.075 69.9822 138.075C70.4747 138.075 70.889 137.962 71.2251 137.734C71.5613 137.502 71.7294 137.171 71.7294 136.74C71.7294 136.475 71.6631 136.245 71.5305 136.051C71.398 135.852 71.2133 135.696 70.9766 135.582C70.7398 135.469 70.4652 135.412 70.1527 135.412H68.5831V133.43H70.1527C70.6214 133.43 70.9813 133.321 71.2322 133.104C71.4879 132.886 71.6158 132.614 71.6158 132.287C71.6158 131.918 71.4832 131.622 71.218 131.399C70.9576 131.172 70.6049 131.058 70.1598 131.058C69.71 131.058 69.3359 131.16 69.0376 131.364C68.7441 131.562 68.5926 131.823 68.5831 132.145H65.6641C65.6735 131.491 65.87 130.926 66.2536 130.447C66.6418 129.969 67.1626 129.6 67.8161 129.339C68.4742 129.079 69.2105 128.949 70.0249 128.949C70.915 128.949 71.6821 129.074 72.326 129.325C72.9747 129.571 73.4718 129.924 73.8175 130.384C74.1679 130.843 74.343 131.39 74.343 132.024C74.343 132.602 74.1536 133.085 73.7749 133.473C73.3961 133.861 72.8658 134.138 72.1839 134.304V134.418C72.6338 134.446 73.041 134.567 73.4055 134.78C73.7701 134.993 74.0613 135.286 74.2791 135.661C74.4969 136.03 74.6058 136.468 74.6058 136.974C74.6058 137.652 74.407 138.232 74.0092 138.714C73.6162 139.197 73.0717 139.569 72.3757 139.83C71.6844 140.085 70.8913 140.213 69.9964 140.213C69.1252 140.213 68.344 140.088 67.6527 139.837C66.9661 139.581 66.4193 139.207 66.0121 138.714C65.6096 138.222 65.3965 137.621 65.3729 136.911ZM76.4613 144.091V129.091H79.4442V130.923H79.5792C79.7118 130.63 79.9035 130.331 80.1545 130.028C80.4102 129.721 80.7416 129.465 81.1488 129.261C81.5607 129.053 82.0721 128.949 82.6829 128.949C83.4783 128.949 84.2122 129.157 84.8846 129.574C85.5569 129.986 86.0943 130.608 86.4968 131.442C86.8993 132.27 87.1005 133.31 87.1005 134.56C87.1005 135.777 86.904 136.804 86.511 137.642C86.1228 138.475 85.5924 139.107 84.9201 139.538C84.2525 139.964 83.5044 140.178 82.6758 140.178C82.0887 140.178 81.5891 140.08 81.1772 139.886C80.77 139.692 80.4362 139.448 80.1758 139.155C79.9154 138.857 79.7165 138.556 79.5792 138.253H79.4869V144.091H76.4613ZM79.4229 134.545C79.4229 135.194 79.5129 135.76 79.6928 136.243C79.8728 136.726 80.1332 137.102 80.4741 137.372C80.815 137.637 81.2293 137.77 81.717 137.77C82.2094 137.77 82.6261 137.635 82.967 137.365C83.3079 137.09 83.5659 136.712 83.7411 136.229C83.921 135.741 84.011 135.18 84.011 134.545C84.011 133.916 83.9234 133.362 83.7482 132.884C83.573 132.405 83.315 132.031 82.9741 131.761C82.6332 131.491 82.2141 131.357 81.717 131.357C81.2246 131.357 80.8079 131.487 80.467 131.747C80.1308 132.008 79.8728 132.377 79.6928 132.855C79.5129 133.333 79.4229 133.897 79.4229 134.545ZM94.0465 140.213C92.9433 140.213 91.9892 139.979 91.1843 139.51C90.3841 139.036 89.7662 138.378 89.3306 137.536C88.895 136.688 88.6772 135.705 88.6772 134.588C88.6772 133.461 88.895 132.476 89.3306 131.634C89.7662 130.786 90.3841 130.128 91.1843 129.659C91.9892 129.186 92.9433 128.949 94.0465 128.949C95.1497 128.949 96.1014 129.186 96.9016 129.659C97.7066 130.128 98.3268 130.786 98.7624 131.634C99.198 132.476 99.4158 133.461 99.4158 134.588C99.4158 135.705 99.198 136.688 98.7624 137.536C98.3268 138.378 97.7066 139.036 96.9016 139.51C96.1014 139.979 95.1497 140.213 94.0465 140.213ZM94.0607 137.869C94.5626 137.869 94.9817 137.727 95.3178 137.443C95.654 137.154 95.9073 136.761 96.0778 136.264C96.253 135.767 96.3406 135.201 96.3406 134.567C96.3406 133.932 96.253 133.366 96.0778 132.869C95.9073 132.372 95.654 131.979 95.3178 131.69C94.9817 131.402 94.5626 131.257 94.0607 131.257C93.5541 131.257 93.128 131.402 92.7823 131.69C92.4414 131.979 92.1834 132.372 92.0082 132.869C91.8377 133.366 91.7525 133.932 91.7525 134.567C91.7525 135.201 91.8377 135.767 92.0082 136.264C92.1834 136.761 92.4414 137.154 92.7823 137.443C93.128 137.727 93.5541 137.869 94.0607 137.869ZM106.312 140.213C105.195 140.213 104.234 139.976 103.429 139.503C102.628 139.025 102.013 138.362 101.582 137.514C101.156 136.667 100.943 135.691 100.943 134.588C100.943 133.471 101.158 132.491 101.589 131.648C102.025 130.8 102.643 130.14 103.443 129.666C104.243 129.188 105.195 128.949 106.298 128.949C107.25 128.949 108.083 129.122 108.798 129.467C109.513 129.813 110.079 130.298 110.495 130.923C110.912 131.548 111.142 132.282 111.184 133.125H108.329C108.249 132.58 108.036 132.143 107.69 131.811C107.349 131.475 106.902 131.307 106.348 131.307C105.879 131.307 105.469 131.435 105.119 131.69C104.773 131.941 104.503 132.308 104.309 132.791C104.115 133.274 104.018 133.859 104.018 134.545C104.018 135.241 104.113 135.833 104.302 136.321C104.496 136.809 104.769 137.18 105.119 137.436C105.469 137.692 105.879 137.82 106.348 137.82C106.693 137.82 107.003 137.749 107.278 137.607C107.557 137.464 107.787 137.259 107.967 136.989C108.152 136.714 108.272 136.385 108.329 136.001H111.184C111.137 136.835 110.91 137.569 110.502 138.203C110.1 138.833 109.544 139.325 108.833 139.68C108.123 140.036 107.283 140.213 106.312 140.213ZM112.482 140L112.468 137.599H112.83C113.086 137.599 113.306 137.538 113.491 137.415C113.68 137.287 113.836 137.081 113.96 136.797C114.083 136.513 114.18 136.136 114.251 135.668C114.322 135.194 114.369 134.612 114.393 133.92L114.57 129.091H122.866V140H119.982V131.47H117.29L117.12 134.801C117.077 135.715 116.966 136.501 116.786 137.159C116.611 137.817 116.367 138.357 116.055 138.778C115.742 139.195 115.366 139.503 114.925 139.702C114.485 139.901 113.974 140 113.391 140H112.482ZM128.322 140.206C127.626 140.206 127.006 140.085 126.461 139.844C125.917 139.598 125.486 139.235 125.169 138.757C124.856 138.274 124.7 137.673 124.7 136.953C124.7 136.347 124.811 135.838 125.034 135.426C125.256 135.014 125.559 134.683 125.943 134.432C126.326 134.181 126.762 133.991 127.25 133.864C127.742 133.736 128.258 133.646 128.798 133.594C129.432 133.527 129.944 133.466 130.332 133.409C130.72 133.348 131.002 133.258 131.177 133.139C131.352 133.021 131.44 132.846 131.44 132.614V132.571C131.44 132.121 131.298 131.773 131.014 131.527C130.734 131.281 130.337 131.158 129.821 131.158C129.276 131.158 128.843 131.278 128.521 131.52C128.199 131.757 127.986 132.055 127.882 132.415L125.083 132.188C125.225 131.525 125.505 130.952 125.922 130.469C126.338 129.981 126.876 129.607 127.534 129.347C128.197 129.081 128.964 128.949 129.835 128.949C130.441 128.949 131.021 129.02 131.575 129.162C132.134 129.304 132.628 129.524 133.059 129.822C133.495 130.121 133.838 130.504 134.089 130.973C134.34 131.437 134.466 131.993 134.466 132.642V140H131.596V138.487H131.511C131.336 138.828 131.101 139.129 130.808 139.389C130.514 139.645 130.162 139.846 129.75 139.993C129.338 140.135 128.862 140.206 128.322 140.206ZM129.189 138.118C129.634 138.118 130.027 138.03 130.368 137.855C130.708 137.675 130.976 137.434 131.17 137.131C131.364 136.828 131.461 136.484 131.461 136.101V134.943C131.367 135.005 131.236 135.062 131.071 135.114C130.91 135.161 130.727 135.206 130.524 135.249C130.32 135.286 130.117 135.322 129.913 135.355C129.709 135.384 129.525 135.41 129.359 135.433C129.004 135.485 128.694 135.568 128.429 135.682C128.163 135.795 127.958 135.949 127.811 136.143C127.664 136.333 127.591 136.57 127.591 136.854C127.591 137.266 127.74 137.58 128.038 137.798C128.341 138.011 128.725 138.118 129.189 138.118ZM143.205 140V131.463H141.159C140.605 131.463 140.184 131.591 139.895 131.847C139.606 132.102 139.464 132.405 139.469 132.756C139.464 133.111 139.602 133.411 139.881 133.658C140.165 133.899 140.582 134.02 141.131 134.02H144.213V136.065H141.131C140.198 136.065 139.391 135.923 138.709 135.639C138.027 135.355 137.502 134.96 137.132 134.453C136.763 133.942 136.581 133.348 136.586 132.67C136.581 131.96 136.763 131.338 137.132 130.803C137.502 130.263 138.03 129.844 138.716 129.545C139.408 129.242 140.222 129.091 141.159 129.091H146.025V140H143.205ZM136.273 140L139.306 134.318H142.196L139.171 140H136.273ZM71.044 164L74.858 158.325L71.0653 153.091H74.517L77.3509 157.359H77.8196V153.091H80.8452V157.359H81.2997L84.1335 153.091H87.5852L83.7997 158.325L87.6065 164H84.0767L81.2713 159.739H80.8452V164H77.8196V159.739H77.3935L74.5739 164H71.044ZM92.2035 160.009L96.131 153.091H99.114V164H96.2305V157.061L92.3171 164H89.3129V153.091H92.2035V160.009ZM100.978 160.911H103.912C103.926 161.27 104.087 161.554 104.395 161.763C104.702 161.971 105.1 162.075 105.588 162.075C106.08 162.075 106.494 161.962 106.831 161.734C107.167 161.502 107.335 161.171 107.335 160.74C107.335 160.475 107.269 160.245 107.136 160.051C107.003 159.852 106.819 159.696 106.582 159.582C106.345 159.469 106.071 159.412 105.758 159.412H104.189V157.43H105.758C106.227 157.43 106.587 157.321 106.838 157.104C107.093 156.886 107.221 156.614 107.221 156.287C107.221 155.918 107.089 155.622 106.824 155.399C106.563 155.172 106.21 155.058 105.765 155.058C105.315 155.058 104.941 155.16 104.643 155.364C104.35 155.562 104.198 155.823 104.189 156.145H101.27C101.279 155.491 101.475 154.926 101.859 154.447C102.247 153.969 102.768 153.6 103.422 153.339C104.08 153.079 104.816 152.949 105.63 152.949C106.52 152.949 107.288 153.074 107.931 153.325C108.58 153.571 109.077 153.924 109.423 154.384C109.773 154.843 109.949 155.39 109.949 156.024C109.949 156.602 109.759 157.085 109.38 157.473C109.002 157.861 108.471 158.138 107.789 158.304V158.418C108.239 158.446 108.646 158.567 109.011 158.78C109.376 158.993 109.667 159.286 109.885 159.661C110.102 160.03 110.211 160.468 110.211 160.974C110.211 161.652 110.012 162.232 109.615 162.714C109.222 163.197 108.677 163.569 107.981 163.83C107.29 164.085 106.497 164.213 105.602 164.213C104.731 164.213 103.949 164.088 103.258 163.837C102.572 163.581 102.025 163.207 101.618 162.714C101.215 162.222 101.002 161.621 100.978 160.911ZM119.659 157.338V159.717H113.963V157.338H119.659ZM114.957 153.091V164H112.067V153.091H114.957ZM121.555 153.091V164H118.686V153.091H121.555ZM125.799 156.443H129.059C130.503 156.443 131.63 156.789 132.44 157.48C133.249 158.167 133.654 159.085 133.654 160.236C133.654 160.984 133.472 161.642 133.107 162.21C132.743 162.774 132.217 163.214 131.531 163.531C130.844 163.844 130.02 164 129.059 164H123.903V153.091H126.793V161.621H129.059C129.566 161.621 129.982 161.493 130.309 161.237C130.636 160.982 130.801 160.655 130.806 160.257C130.801 159.836 130.636 159.492 130.309 159.227C129.982 158.957 129.566 158.822 129.059 158.822H125.799V156.443Z" fill="#BD00FF"/>
</svg>
